<svg xmlns="http://www.w3.org/2000/svg" xmlns:xlink="http://www.w3.org/1999/xlink" width="32" height="32" viewBox="-3 -3 38 38"><rect x="-3" y="-3" width="38" height="38" rx="38.4" fill="#fff"/><defs><clipPath id="b" fill="#000"><path d="M0 0h32v32H0z"/></clipPath><clipPath id="c" fill="#000"><path d="M0 0h32v32H0z"/></clipPath><clipPath id="d" fill="#000"><path d="M0 0h32v32H0z"/></clipPath><clipPath id="e" fill="#000"><path d="M0 0h32v32H0z"/></clipPath><clipPath id="f" fill="#000"><path d="M0 0h32v32H0z"/></clipPath><clipPath id="g" fill="#000"><path d="M0 0h32v32H0z"/></clipPath><clipPath id="h" fill="#000"><path d="M0 0h32v32H0z"/></clipPath><clipPath id="i" fill="#000"><path d="M0 0h32v32H0z"/></clipPath><clipPath id="j" fill="#000"><path d="M0 0h32v32H0z"/></clipPath><clipPath id="k" fill="#000"><path d="M0 0h32v32H0z"/></clipPath><clipPath id="l" fill="#000"><path d="M0 0h32v32H0z"/></clipPath><clipPath id="m" fill="#000"><path d="M0 0h32v32H0z"/></clipPath><clipPath id="n" fill="#000"><path d="M0 0h32v32H0z"/></clipPath><clipPath id="o" fill="#000"><path d="M0 0h32v32H0z"/></clipPath><clipPath id="p" fill="#000"><path d="M0 0h32v32H0z"/></clipPath><clipPath id="q" fill="#000"><path d="M0 0h32v32H0z"/></clipPath><clipPath id="r" fill="#000"><path d="M0 0h32v32H0z"/></clipPath><clipPath id="s" fill="#000"><path d="M0 0h32v32H0z"/></clipPath><clipPath id="t" fill="#000"><path d="M0 0h32v32H0z"/></clipPath><clipPath id="u" fill="#000"><path d="M0 0h32v32H0z"/></clipPath><clipPath id="v" fill="#000"><path d="M0 0h32v32H0z"/></clipPath><clipPath id="w" fill="#000"><path d="M0 0h32v32H0z"/></clipPath><clipPath id="x" fill="#000"><path d="M0 0h32v32H0z"/></clipPath><clipPath id="y" fill="#000"><path d="M0 0h32v32H0z"/></clipPath><clipPath id="z" fill="#000"><path d="M0 0h32v32H0z"/></clipPath><clipPath id="A" fill="#000"><path d="M0 0h32v32H0z"/></clipPath><clipPath id="B" fill="#000"><path d="M0 0h32v32H0z"/></clipPath><clipPath id="C" fill="#000"><path d="M0 0h32v32H0z"/></clipPath><clipPath id="D" fill="#000"><path d="M0 0h32v32H0z"/></clipPath><clipPath id="E" fill="#000"><path d="M0 0h32v32H0z"/></clipPath><clipPath id="F" fill="#000"><path d="M0 0h32v32H0z"/></clipPath><clipPath id="G" fill="#000"><path d="M0 0h32v32H0z"/></clipPath><clipPath id="H" fill="#000"><path d="M0 0h32v32H0z"/></clipPath><clipPath id="I" fill="#000"><path d="M0 0h32v32H0z"/></clipPath><clipPath id="J" fill="#000"><path d="M0 0h32v32H0z"/></clipPath><clipPath id="K" fill="#000"><path d="M0 0h32v32H0z"/></clipPath><clipPath id="L" fill="#000"><path d="M0 0h32v32H0z"/></clipPath><clipPath id="M" fill="#000"><path d="M0 0h32v32H0z"/></clipPath><clipPath id="N" fill="#000"><path d="M0 0h32v32H0z"/></clipPath><clipPath id="O" fill="#000"><path d="M0 0h32v32H0z"/></clipPath><clipPath id="P" fill="#000"><path d="M0 0h32v32H0z"/></clipPath><clipPath id="Q" fill="#000"><path d="M0 0h32v32H0z"/></clipPath><clipPath id="R" fill="#000"><path d="M0 0h32v32H0z"/></clipPath><clipPath id="S" fill="#000"><path d="M0 0h32v32H0z"/></clipPath><clipPath id="T" fill="#000"><path d="M0 0h32v32H0z"/></clipPath><clipPath id="U" fill="#000"><path d="M0 0h32v32H0z"/></clipPath><clipPath id="V" fill="#000"><path d="M0 0h32v32H0z"/></clipPath><clipPath id="W" fill="#000"><path d="M0 0h32v32H0z"/></clipPath><clipPath id="X" fill="#000"><path d="M0 0h32v32H0z"/></clipPath><clipPath id="Y" fill="#000"><path d="M0 0h32v32H0z"/></clipPath><clipPath id="Z" fill="#000"><path d="M0 0h32v32H0z"/></clipPath><clipPath id="aa" fill="#000"><path d="M0 0h32v32H0z"/></clipPath><clipPath id="ab" fill="#000"><path d="M0 0h32v32H0z"/></clipPath><clipPath id="ac" fill="#000"><path d="M0 0h32v32H0z"/></clipPath><clipPath id="ad" fill="#000"><path d="M0 0h32v32H0z"/></clipPath><clipPath id="ae" fill="#000"><path d="M0 0h32v32H0z"/></clipPath><clipPath id="af" fill="#000"><path d="M0 0h32v32H0z"/></clipPath><mask id="ah" fill="#000"><g filter="url(#a)"><path style="fill:#000;fill-opacity:.00392157;stroke:none" d="M0 0h32v32H0z"/></g></mask><mask id="aj" fill="#000"><g filter="url(#a)"><path style="fill:#000;fill-opacity:.00392157;stroke:none" d="M0 0h32v32H0z"/></g></mask><mask id="al" fill="#000"><g filter="url(#a)"><path style="fill:#000;fill-opacity:.00392157;stroke:none" d="M0 0h32v32H0z"/></g></mask><mask id="an" fill="#000"><g filter="url(#a)"><path style="fill:#000;fill-opacity:.00392157;stroke:none" d="M0 0h32v32H0z"/></g></mask><mask id="ap" fill="#000"><g filter="url(#a)"><path style="fill:#000;fill-opacity:.00784314;stroke:none" d="M0 0h32v32H0z"/></g></mask><mask id="ar" fill="#000"><g filter="url(#a)"><path style="fill:#000;fill-opacity:.00392157;stroke:none" d="M0 0h32v32H0z"/></g></mask><mask id="at" fill="#000"><g filter="url(#a)"><path style="fill:#000;fill-opacity:.00392157;stroke:none" d="M0 0h32v32H0z"/></g></mask><mask id="av" fill="#000"><g filter="url(#a)"><path style="fill:#000;fill-opacity:.00392157;stroke:none" d="M0 0h32v32H0z"/></g></mask><mask id="ax" fill="#000"><g filter="url(#a)"><path style="fill:#000;fill-opacity:.00392157;stroke:none" d="M0 0h32v32H0z"/></g></mask><mask id="az" fill="#000"><g filter="url(#a)"><path style="fill:#000;fill-opacity:.00392157;stroke:none" d="M0 0h32v32H0z"/></g></mask><mask id="aB" fill="#000"><g filter="url(#a)"><path style="fill:#000;fill-opacity:.00392157;stroke:none" d="M0 0h32v32H0z"/></g></mask><mask id="aD" fill="#000"><g filter="url(#a)"><path style="fill:#000;fill-opacity:.00392157;stroke:none" d="M0 0h32v32H0z"/></g></mask><mask id="aF" fill="#000"><g filter="url(#a)"><path style="fill:#000;fill-opacity:.00392157;stroke:none" d="M0 0h32v32H0z"/></g></mask><mask id="aH" fill="#000"><g filter="url(#a)"><path style="fill:#000;fill-opacity:.00392157;stroke:none" d="M0 0h32v32H0z"/></g></mask><mask id="aJ" fill="#000"><g filter="url(#a)"><path style="fill:#000;fill-opacity:.00392157;stroke:none" d="M0 0h32v32H0z"/></g></mask><mask id="aL" fill="#000"><g filter="url(#a)"><path style="fill:#000;fill-opacity:.00392157;stroke:none" d="M0 0h32v32H0z"/></g></mask><mask id="aN" fill="#000"><g filter="url(#a)"><path style="fill:#000;fill-opacity:.0117647;stroke:none" d="M0 0h32v32H0z"/></g></mask><mask id="aP" fill="#000"><g filter="url(#a)"><path style="fill:#000;fill-opacity:.996078;stroke:none" d="M0 0h32v32H0z"/></g></mask><mask id="aR" fill="#000"><g filter="url(#a)"><path style="fill:#000;fill-opacity:.00784314;stroke:none" d="M0 0h32v32H0z"/></g></mask><mask id="aT" fill="#000"><g filter="url(#a)"><path style="fill:#000;fill-opacity:.00392157;stroke:none" d="M0 0h32v32H0z"/></g></mask><mask id="aV" fill="#000"><g filter="url(#a)"><path style="fill:#000;fill-opacity:.00392157;stroke:none" d="M0 0h32v32H0z"/></g></mask><mask id="aX" fill="#000"><g filter="url(#a)"><path style="fill:#000;fill-opacity:.00784314;stroke:none" d="M0 0h32v32H0z"/></g></mask><mask id="aZ" fill="#000"><g filter="url(#a)"><path style="fill:#000;fill-opacity:.00392157;stroke:none" d="M0 0h32v32H0z"/></g></mask><mask id="bb" fill="#000"><g filter="url(#a)"><path style="fill:#000;fill-opacity:.00392157;stroke:none" d="M0 0h32v32H0z"/></g></mask><mask id="bd" fill="#000"><g filter="url(#a)"><path style="fill:#000;fill-opacity:.00392157;stroke:none" d="M0 0h32v32H0z"/></g></mask><mask id="bf" fill="#000"><g filter="url(#a)"><path style="fill:#000;fill-opacity:.00392157;stroke:none" d="M0 0h32v32H0z"/></g></mask><mask id="bh" fill="#000"><g filter="url(#a)"><path style="fill:#000;fill-opacity:.00392157;stroke:none" d="M0 0h32v32H0z"/></g></mask><mask id="bj" fill="#000"><g filter="url(#a)"><path style="fill:#000;fill-opacity:.00392157;stroke:none" d="M0 0h32v32H0z"/></g></mask><mask id="bl" fill="#000"><g filter="url(#a)"><path style="fill:#000;fill-opacity:.0313725;stroke:none" d="M0 0h32v32H0z"/></g></mask><mask id="bn" fill="#000"><g filter="url(#a)"><path style="fill:#000;fill-opacity:.00392157;stroke:none" d="M0 0h32v32H0z"/></g></mask><mask id="bp" fill="#000"><g filter="url(#a)"><path style="fill:#000;fill-opacity:.00392157;stroke:none" d="M0 0h32v32H0z"/></g></mask><mask id="br" fill="#000"><g filter="url(#a)"><path style="fill:#000;fill-opacity:.00392157;stroke:none" d="M0 0h32v32H0z"/></g></mask><mask id="bt" fill="#000"><g filter="url(#a)"><path style="fill:#000;fill-opacity:.00392157;stroke:none" d="M0 0h32v32H0z"/></g></mask><mask id="bv" fill="#000"><g filter="url(#a)"><path style="fill:#000;fill-opacity:.00392157;stroke:none" d="M0 0h32v32H0z"/></g></mask><mask id="bx" fill="#000"><g filter="url(#a)"><path style="fill:#000;fill-opacity:.00392157;stroke:none" d="M0 0h32v32H0z"/></g></mask><mask id="bz" fill="#000"><g filter="url(#a)"><path style="fill:#000;fill-opacity:.258824;stroke:none" d="M0 0h32v32H0z"/></g></mask><mask id="bB" fill="#000"><g filter="url(#a)"><path style="fill:#000;fill-opacity:.992157;stroke:none" d="M0 0h32v32H0z"/></g></mask><mask id="bD" fill="#000"><g filter="url(#a)"><path style="fill:#000;fill-opacity:.996078;stroke:none" d="M0 0h32v32H0z"/></g></mask><mask id="bF" fill="#000"><g filter="url(#a)"><path style="fill:#000;fill-opacity:.992157;stroke:none" d="M0 0h32v32H0z"/></g></mask><mask id="bH" fill="#000"><g filter="url(#a)"><path style="fill:#000;fill-opacity:.00784314;stroke:none" d="M0 0h32v32H0z"/></g></mask><mask id="bJ" fill="#000"><g filter="url(#a)"><path style="fill:#000;fill-opacity:.00392157;stroke:none" d="M0 0h32v32H0z"/></g></mask><mask id="bL" fill="#000"><g filter="url(#a)"><path style="fill:#000;fill-opacity:.0117647;stroke:none" d="M0 0h32v32H0z"/></g></mask><mask id="bN" fill="#000"><g filter="url(#a)"><path style="fill:#000;fill-opacity:.00392157;stroke:none" d="M0 0h32v32H0z"/></g></mask><mask id="bP" fill="#000"><g filter="url(#a)"><path style="fill:#000;fill-opacity:.0117647;stroke:none" d="M0 0h32v32H0z"/></g></mask><mask id="bR" fill="#000"><g filter="url(#a)"><path style="fill:#000;fill-opacity:.00392157;stroke:none" d="M0 0h32v32H0z"/></g></mask><mask id="bT" fill="#000"><g filter="url(#a)"><path style="fill:#000;fill-opacity:.00392157;stroke:none" d="M0 0h32v32H0z"/></g></mask><mask id="bV" fill="#000"><g filter="url(#a)"><path style="fill:#000;fill-opacity:.00784314;stroke:none" d="M0 0h32v32H0z"/></g></mask><mask id="bX" fill="#000"><g filter="url(#a)"><path style="fill:#000;fill-opacity:.996078;stroke:none" d="M0 0h32v32H0z"/></g></mask><mask id="bZ" fill="#000"><g filter="url(#a)"><path style="fill:#000;fill-opacity:.00392157;stroke:none" d="M0 0h32v32H0z"/></g></mask><mask id="cb" fill="#000"><g filter="url(#a)"><path style="fill:#000;fill-opacity:.996078;stroke:none" d="M0 0h32v32H0z"/></g></mask><mask id="cd" fill="#000"><g filter="url(#a)"><path style="fill:#000;fill-opacity:.00784314;stroke:none" d="M0 0h32v32H0z"/></g></mask><mask id="cf" fill="#000"><g filter="url(#a)"><path style="fill:#000;fill-opacity:.00392157;stroke:none" d="M0 0h32v32H0z"/></g></mask><mask id="ch" fill="#000"><g filter="url(#a)"><path style="fill:#000;fill-opacity:.00392157;stroke:none" d="M0 0h32v32H0z"/></g></mask><mask id="cj" fill="#000"><g filter="url(#a)"><path style="fill:#000;fill-opacity:.00392157;stroke:none" d="M0 0h32v32H0z"/></g></mask><mask id="cl" fill="#000"><g filter="url(#a)"><path style="fill:#000;fill-opacity:.00784314;stroke:none" d="M0 0h32v32H0z"/></g></mask><mask id="cn" fill="#000"><g filter="url(#a)"><path style="fill:#000;fill-opacity:.00784314;stroke:none" d="M0 0h32v32H0z"/></g></mask><mask id="cp" fill="#000"><g filter="url(#a)"><path style="fill:#000;fill-opacity:.00392157;stroke:none" d="M0 0h32v32H0z"/></g></mask><g id="ag" clip-path="url(#b)"><path style="stroke:none;fill-rule:evenodd;fill:#18191a;fill-opacity:1" d="M8.484 4.578q.064.03 0 0m0 0"/></g><g id="ai" clip-path="url(#c)"><path style="stroke:none;fill-rule:evenodd;fill:#16181a;fill-opacity:1" d="M10.547 4.578q.064.03 0 0m0 0"/></g><g id="ak" clip-path="url(#d)"><path style="stroke:none;fill-rule:evenodd;fill:#161819;fill-opacity:1" d="M10.984 4.578q.064.03 0 0m0 0"/></g><g id="am" clip-path="url(#e)"><path style="stroke:none;fill-rule:evenodd;fill:#18191a;fill-opacity:1" d="M11.484 4.578q.064.03 0 0m0 0"/></g><g id="ao" clip-path="url(#f)"><path style="stroke:none;fill-rule:evenodd;fill:#181d1a;fill-opacity:1" d="M13.547 4.578q.064.03 0 0m0 0"/></g><g id="aq" clip-path="url(#g)"><path style="stroke:none;fill-rule:evenodd;fill:#191b19;fill-opacity:1" d="M14.297 4.578q.064.03 0 0m0 0"/></g><g id="as" clip-path="url(#h)"><path style="stroke:none;fill-rule:evenodd;fill:#19191c;fill-opacity:1" d="M18.734 4.578q.064.03 0 0m0 0"/></g><g id="au" clip-path="url(#i)"><path style="stroke:none;fill-rule:evenodd;fill:#161a1b;fill-opacity:1" d="M18.797 4.578q.064.03 0 0m0 0"/></g><g id="aw" clip-path="url(#j)"><path style="stroke:none;fill-rule:evenodd;fill:#171819;fill-opacity:1" d="M18.984 4.578q.064.03 0 0m0 0"/></g><g id="ay" clip-path="url(#k)"><path style="stroke:none;fill-rule:evenodd;fill:#19181a;fill-opacity:1" d="M19.234 4.61c.012-.032.036-.04.063-.016a.07.07 0 0 1-.063.015m0 0"/></g><g id="aA" clip-path="url(#l)"><path style="stroke:none;fill-rule:evenodd;fill:#171a1c;fill-opacity:1" d="M20.484 4.578q.064.03 0 0m0 0"/></g><g id="aC" clip-path="url(#m)"><path style="stroke:none;fill-rule:evenodd;fill:#18191c;fill-opacity:1" d="M21.234 4.578q.064.03 0 0m0 0"/></g><g id="aE" clip-path="url(#n)"><path style="stroke:none;fill-rule:evenodd;fill:#191b1e;fill-opacity:1" d="M21.547 4.578q.064.03 0 0m0 0"/></g><g id="aG" clip-path="url(#o)"><path style="stroke:none;fill-rule:evenodd;fill:#17191b;fill-opacity:1" d="M9.203 4.61q.064.029 0 0m0 0"/></g><g id="aI" clip-path="url(#p)"><path style="stroke:none;fill-rule:evenodd;fill:#18181c;fill-opacity:1" d="M13.766 4.61q.064.029 0 0m0 0"/></g><g id="aK" clip-path="url(#q)"><path style="stroke:none;fill-rule:evenodd;fill:#16191b;fill-opacity:1" d="M16.766 4.61q.064.029 0 0m0 0"/></g><g id="aM" clip-path="url(#r)"><path style="stroke:none;fill-rule:evenodd;fill:#1b1b20;fill-opacity:1" d="M24.484 4.61q.064.029 0 0m0 0"/></g><g id="aO" clip-path="url(#s)"><path style="stroke:none;fill-rule:evenodd;fill:#000;fill-opacity:1" d="M25.64 5.016a.4.4 0 0 0 .157.093q.017.04.062.032a.25.25 0 0 0 .157.125q.042.07.125.093a3.17 3.17 0 0 1 1.015 1.813q.006.901.047 1.797-.053 7.721 0 15.25-.001.944-.5 1.734-.984 1.348-2.672 1.313a1266 1266 0 0 0-16.343 0 3.2 3.2 0 0 1-1.672-.5c-.082-.075-.164-.145-.25-.22a7 7 0 0 1-.438-.468 9 9 0 0 1-.469-.875q.065-.032 0-.062a7 7 0 0 0-.078-.47q-.006-.544-.047-1.077.042-8.093 0-15.75 0-.769.282-1.485.326-.574.812-1.03.2-.134.406-.266.019-.042.032-.079a.1.1 0 0 1 .046.032 2.6 2.6 0 0 1 1.016-.328q2.701-.006 5.39-.047 5.926.017 11.891.046.545.083 1.032.329M7.454 6.14c.176-.004.356 0 .531.015l-.28.032q.919.005 1.827.046 3.334-.041 6.672-.046l-.125-.032a.3.3 0 0 1 .188 0l-.032.032q.386.005.766.046a77 77 0 0 1 4.031 0q1.551-.041 3.11-.046c-.176-.012-.356-.02-.532-.032q.438-.022.875-.015.523.08.844.437.357.34.422.844a76 76 0 0 0 .016 3.281q-.902-.017-1.797.031a1.75 1.75 0 0 0-.797-.968 2.6 2.6 0 0 0-.688-.157c-.238.02-.464.075-.687.157q-.508.31-.781.843c-.043.223-.086.45-.125.672.062.176.117.36.156.547q.075.061.047.156a4 4 0 0 0-.328.282 1.5 1.5 0 0 1-.25.25.5.5 0 0 0-.078.125 7 7 0 0 0-.422.375.6.6 0 0 1-.282.234l.032.031q-.733.778-1.5 1.531c-.606-.347-1.207-.335-1.813.032q-.392.322-.531.797h-3.656a1.4 1.4 0 0 0-.344-.625 1.9 1.9 0 0 0-.688-.407 1.76 1.76 0 0 0-1.218.157q-1.12.83-.594 2.078-.136.041-.031.078a1.5 1.5 0 0 1-.25.25 6 6 0 0 1-.5.5 6 6 0 0 1-.5.5 3 3 0 0 1-.344.344 4 4 0 0 1-.406.406.4.4 0 0 1-.125.125 6 6 0 0 1-.5.5 1.2 1.2 0 0 1-.22.219 3 3 0 0 1-.312.375q-.063-.066.032-.11a6 6 0 0 1-.063-.89q.018-5.86 0-11.72c.031-.35.176-.644.438-.874q.326-.352.812-.406m15.188 4.562q.116.012.203.094.252.305.093.656a.25.25 0 0 1-.171.156c-.016.043-.047.067-.094.063q-.623.163-.719-.5.101-.61.688-.469m-12.157 5.813a.44.44 0 0 1-.187-.391.45.45 0 0 1 .281-.453q.047.056.094-.016c-.008-.011-.016-.02-.031-.015q.473-.157.672.312.112.691-.579.703a.5.5 0 0 1-.25-.14m7.125-.844q.046-.008.063.031.323.264.172.656a.34.34 0 0 1-.14.157q-.342.304-.688 0-.318-.324-.078-.72.297-.316.671-.124m0 0"/></g><g id="aQ" clip-path="url(#t)"><path style="stroke:none;fill-rule:evenodd;fill:#16191c;fill-opacity:1" d="M6.766 4.734q.065.03 0 0m0 0"/></g><g id="aS" clip-path="url(#u)"><path style="stroke:none;fill-rule:evenodd;fill:#1a1c1e;fill-opacity:1" d="M25.203 4.766q.064.03 0 0m0 0"/></g><g id="aU" clip-path="url(#v)"><path style="stroke:none;fill-rule:evenodd;fill:#14181d;fill-opacity:1" d="M25.64 4.984q.066.03 0 0m0 0"/></g><g id="aW" clip-path="url(#w)"><path style="stroke:none;fill-rule:evenodd;fill:#1a1e1e;fill-opacity:1" d="M25.797 5.078q.064.03 0 0m0 0"/></g><g id="aY" clip-path="url(#x)"><path style="stroke:none;fill-rule:evenodd;fill:#1a1b1c;fill-opacity:1" d="M25.86 5.11q.063.029 0 0m0 0"/></g><g id="ba" clip-path="url(#y)"><path style="stroke:none;fill-rule:evenodd;fill:#17181b;fill-opacity:1" d="M5.86 5.234q.063.03 0 0m0 0"/></g><g id="bc" clip-path="url(#z)"><path style="stroke:none;fill-rule:evenodd;fill:#191a1e;fill-opacity:1" d="M26.016 5.234q.064.03 0 0m0 0"/></g><g id="be" clip-path="url(#A)"><path style="stroke:none;fill-rule:evenodd;fill:#15171b;fill-opacity:1" d="M5.828 5.328q-.03-.065 0 0m0 0"/></g><g id="bg" clip-path="url(#B)"><path style="stroke:none;fill-rule:evenodd;fill:#1a1d1e;fill-opacity:1" d="M26.14 5.328q.066.03 0 0m0 0"/></g><g id="bi" clip-path="url(#C)"><path style="stroke:none;fill-rule:evenodd;fill:#16171c;fill-opacity:1" d="M5.484 5.578q.065.03 0 0m0 0"/></g><g id="bk" clip-path="url(#D)"><path style="stroke:none;fill-rule:evenodd;fill:#0e0e10;fill-opacity:1" d="M7.453 6.14c5.676-.042 11.356-.042 17.031 0q-.437-.006-.875.016c.176.012.356.02.532.032q-1.559.005-3.11.046a77 77 0 0 0-4.031 0 8 8 0 0 0-.766-.046l.032-.032a.3.3 0 0 0-.188 0l.125.032q-3.339.005-6.672.046a47 47 0 0 0-1.828-.046l.281-.032a5 5 0 0 0-.53-.015m0 0"/></g><g id="bm" clip-path="url(#E)"><path style="stroke:none;fill-rule:evenodd;fill:#151a1a;fill-opacity:1" d="M5.016 6.36q-.03-.066 0 0m0 0"/></g><g id="bo" clip-path="url(#F)"><path style="stroke:none;fill-rule:evenodd;fill:#17181a;fill-opacity:1" d="M4.89 6.516q.066.03 0 0m0 0"/></g><g id="bq" clip-path="url(#G)"><path style="stroke:none;fill-rule:evenodd;fill:#171a20;fill-opacity:1" d="M27.14 6.89q.066.03 0 0m0 0"/></g><g id="bs" clip-path="url(#H)"><path style="stroke:none;fill-rule:evenodd;fill:#16181f;fill-opacity:1" d="M27.172 7.078q.064.03 0 0m0 0"/></g><g id="bu" clip-path="url(#I)"><path style="stroke:none;fill-rule:evenodd;fill:#141a1e;fill-opacity:1" d="M27.203 7.266q.064.03 0 0m0 0"/></g><g id="bw" clip-path="url(#J)"><path style="stroke:none;fill-rule:evenodd;fill:#0e161f;fill-opacity:1" d="M27.203 9.328q.064.03 0 0m0 0"/></g><g id="by" clip-path="url(#K)"><path style="stroke:none;fill-rule:evenodd;fill:#0d131b;fill-opacity:1" d="M6.203 7.422q.018 5.859 0 11.719 0 .456.063.89-.096.044-.032.11a.12.12 0 0 1-.046.062c-.028-4.265-.02-8.527.015-12.781m0 0"/></g><g id="bA" clip-path="url(#L)"><path style="stroke:none;fill-rule:evenodd;fill:#3ba2f1;fill-opacity:1" d="M18.922 16.297a.2.2 0 0 1 .031.11 1.36 1.36 0 0 1-.531.89 1.65 1.65 0 0 0 .5-1m0 0"/></g><g id="bC" clip-path="url(#M)"><path style="stroke:none;fill-rule:evenodd;fill:#3083e7;fill-opacity:1" d="M23.953 11.766a.07.07 0 0 0 .016.062 24 24 0 0 1 1.765-.031q-.016 6.381.032 12.75a1.56 1.56 0 0 1-.875 1.156q-.001-.024-.032-.031a2 2 0 0 1-.343.11q-2.75.022-5.5.015H7.703a1.64 1.64 0 0 1-1.219-.594.9.9 0 0 1-.218-.375c.02-.008.027-.023.03-.047a1 1 0 0 1-.046-.172q-.023-1.5-.016-3a2788 2788 0 0 1 3.375-3.406.4.4 0 0 1 .125-.125q.252-.182.47-.422.449.066.905.032.808-.189 1.188-.922a51 51 0 0 1 3.625 0q.579 1.059 1.656.906a.15.15 0 0 1 .125-.031c.008.02.024.027.047.03a1.45 1.45 0 0 0 .672-.374 1.36 1.36 0 0 0 .531-.89.2.2 0 0 0-.031-.11 1.9 1.9 0 0 0-.063-.594 364 364 0 0 1 3-3.015.45.45 0 0 0 .22-.016q.045-.008.062.031-.022-.004-.032.016c.227.05.453.058.688.031q.381-.064.656-.328c.102-.117.211-.235.328-.344q.101-.153.172-.312m0 0"/></g><g id="bE" clip-path="url(#N)"><path style="stroke:none;fill-rule:evenodd;fill:#3898f3;fill-opacity:1" d="M6.203 21.578q.001.03.031.031-.007 1.5.016 3 .017.09.047.172-.004.036-.031.047a1.5 1.5 0 0 1-.079-.344 45 45 0 0 1 .016-2.906m0 0"/></g><g id="bG" clip-path="url(#O)"><path style="stroke:none;fill-rule:evenodd;fill:#171d20;fill-opacity:1" d="M4.766 24.89q.065.03 0 0m0 0"/></g><g id="bI" clip-path="url(#P)"><path style="stroke:none;fill-rule:evenodd;fill:#181a21;fill-opacity:1" d="M4.734 25.078q.065.03 0 0m0 0"/></g><g id="bK" clip-path="url(#Q)"><path style="stroke:none;fill-rule:evenodd;fill:#171921;fill-opacity:1" d="M4.797 25.047q.048.02.016.062a.07.07 0 0 1-.016-.062m0 0"/></g><g id="bM" clip-path="url(#R)"><path style="stroke:none;fill-rule:evenodd;fill:#1a1f2b;fill-opacity:1" d="M27.11 25.14q.063.03 0 0m0 0"/></g><g id="bO" clip-path="url(#S)"><path style="stroke:none;fill-rule:evenodd;fill:#171b21;fill-opacity:1" d="M4.86 25.14v.063q-.066-.032 0-.062m0 0"/></g><g id="bQ" clip-path="url(#T)"><path style="stroke:none;fill-rule:evenodd;fill:#161c24;fill-opacity:1" d="M27.016 25.39q.064.03 0 0m0 0"/></g><g id="bS" clip-path="url(#U)"><path style="stroke:none;fill-rule:evenodd;fill:#14191f;fill-opacity:1" d="M4.984 25.578q.065.03 0 0m0 0"/></g><g id="bU" clip-path="url(#V)"><path style="stroke:none;fill-rule:evenodd;fill:#14191f;fill-opacity:1" d="M5.016 25.64q.065.03 0 0m0 0"/></g><g id="bW" clip-path="url(#W)"><path style="stroke:none;fill-rule:evenodd;fill:#3a9ae8;fill-opacity:1" d="M6.484 25.203q.475.557 1.22.594.014.032.03.062a1.7 1.7 0 0 1-1.234-.593.07.07 0 0 1-.016-.063m0 0"/></g><g id="bY" clip-path="url(#X)"><path style="stroke:none;fill-rule:evenodd;fill:#171821;fill-opacity:1" d="M5.047 25.703q.065.03 0 0m0 0"/></g><g id="ca" clip-path="url(#Y)"><path style="stroke:none;fill-rule:evenodd;fill:#3c9ff7;fill-opacity:1" d="M7.703 25.797h11.313l4.468.062H7.734zm0 0"/></g><g id="cc" clip-path="url(#Z)"><path style="stroke:none;fill-rule:evenodd;fill:#121621;fill-opacity:1" d="M26.703 25.953q.064.03 0 0m0 0"/></g><g id="ce" clip-path="url(#aa)"><path style="stroke:none;fill-rule:evenodd;fill:#131a20;fill-opacity:1" d="M5.234 26.016q.065.03 0 0m0 0"/></g><g id="cg" clip-path="url(#ab)"><path style="stroke:none;fill-rule:evenodd;fill:#141a21;fill-opacity:1" d="M5.328 26.078q-.03.03 0 0m0 0"/></g><g id="ci" clip-path="url(#ac)"><path style="stroke:none;fill-rule:evenodd;fill:#151822;fill-opacity:1" d="M5.766 26.547q-.03.03 0 0m0 0"/></g><g id="ck" clip-path="url(#ad)"><path style="stroke:none;fill-rule:evenodd;fill:#141a25;fill-opacity:1" d="M6.016 26.766q-.03.03 0 0m0 0"/></g><g id="cm" clip-path="url(#ae)"><path style="stroke:none;fill-rule:evenodd;fill:#151b25;fill-opacity:1" d="M6.734 27.14q.065.03 0 0m0 0"/></g><g id="co" clip-path="url(#af)"><path style="stroke:none;fill-rule:evenodd;fill:#202427;fill-opacity:1" d="M9.61 29.172q.063.03 0 0m0 0"/></g><filter id="a" filterUnits="objectBoundingBox" x="0%" y="0%" width="100%" height="100%" fill="#000"><feColorMatrix in="SourceGraphic" values="0 0 0 0 1 0 0 0 0 1 0 0 0 0 1 0 0 0 1 0"/></filter></defs><use xlink:href="#ag" mask="url(#ah)"/><use xlink:href="#ai" mask="url(#aj)"/><use xlink:href="#ak" mask="url(#al)"/><use xlink:href="#am" mask="url(#an)"/><use xlink:href="#ao" mask="url(#ap)"/><use xlink:href="#aq" mask="url(#ar)"/><use xlink:href="#as" mask="url(#at)"/><use xlink:href="#au" mask="url(#av)"/><use xlink:href="#aw" mask="url(#ax)"/><use xlink:href="#ay" mask="url(#az)"/><use xlink:href="#aA" mask="url(#aB)"/><use xlink:href="#aC" mask="url(#aD)"/><use xlink:href="#aE" mask="url(#aF)"/><use xlink:href="#aG" mask="url(#aH)"/><use xlink:href="#aI" mask="url(#aJ)"/><use xlink:href="#aK" mask="url(#aL)"/><use xlink:href="#aM" mask="url(#aN)"/><use xlink:href="#aO" mask="url(#aP)"/><use xlink:href="#aQ" mask="url(#aR)"/><use xlink:href="#aS" mask="url(#aT)"/><use xlink:href="#aU" mask="url(#aV)"/><use xlink:href="#aW" mask="url(#aX)"/><use xlink:href="#aY" mask="url(#aZ)"/><use xlink:href="#ba" mask="url(#bb)"/><use xlink:href="#bc" mask="url(#bd)"/><use xlink:href="#be" mask="url(#bf)"/><use xlink:href="#bg" mask="url(#bh)"/><use xlink:href="#bi" mask="url(#bj)"/><use xlink:href="#bk" mask="url(#bl)"/><use xlink:href="#bm" mask="url(#bn)"/><use xlink:href="#bo" mask="url(#bp)"/><use xlink:href="#bq" mask="url(#br)"/><use xlink:href="#bs" mask="url(#bt)"/><use xlink:href="#bu" mask="url(#bv)"/><use xlink:href="#bw" mask="url(#bx)"/><path style="stroke:none;fill-rule:evenodd;fill:#3a9eed;fill-opacity:1" d="M23.453 12.422a1.2 1.2 0 0 1-.656.328c-.235.027-.461.02-.688-.031.008-.012.016-.02.032-.016q.715.11 1.312-.281m0 0"/><path style="stroke:none;fill-rule:evenodd;fill:#3ca6f8;fill-opacity:1" d="M22.078 12.672a.45.45 0 0 1-.219.015 388 388 0 0 0-3 3.016.16.16 0 0 1 .016-.094l2.984-2.984c.075.004.145.02.22.047m0 0"/><use xlink:href="#by" mask="url(#bz)"/><path style="stroke:none;fill-rule:evenodd;fill:#3c9dec;fill-opacity:1" d="M17.578 17.672q-1.078.152-1.656-.906a51 51 0 0 0-3.625 0 1.72 1.72 0 0 1-1.188.922 4 4 0 0 1-.906-.032q-.216.24-.469.422.223-.248.47-.484 1.06.297 1.827-.485.14-.188.235-.406a53 53 0 0 1 3.687 0q.481 1.027 1.625.969m0 0"/><use xlink:href="#bA" mask="url(#bB)"/><path style="stroke:none;fill-rule:evenodd;fill:#3b95db;fill-opacity:1" d="M23.953 11.766h1.844q.017 6.393-.031 12.78-.048-6.367-.032-12.75-.886-.015-1.765.032a.07.07 0 0 1-.016-.062m0 0"/><path style="stroke:none;fill-rule:evenodd;fill:#3ba6f3;fill-opacity:1" d="M9.61 18.203a2788 2788 0 0 0-3.376 3.406q-.03 0-.03-.03a132 132 0 0 1 3.405-3.376m0 0"/><use xlink:href="#bC" mask="url(#bD)"/><path style="stroke:none;fill-rule:evenodd;fill:#3ca2eb;fill-opacity:1" d="M18.422 17.297a1.45 1.45 0 0 1-.672.375q-.035-.004-.047-.031.392-.111.719-.344m0 0"/><use xlink:href="#bE" mask="url(#bF)"/><use xlink:href="#bG" mask="url(#bH)"/><use xlink:href="#bI" mask="url(#bJ)"/><use xlink:href="#bK" mask="url(#bL)"/><use xlink:href="#bM" mask="url(#bN)"/><use xlink:href="#bO" mask="url(#bP)"/><use xlink:href="#bQ" mask="url(#bR)"/><use xlink:href="#bS" mask="url(#bT)"/><use xlink:href="#bU" mask="url(#bV)"/><use xlink:href="#bW" mask="url(#bX)"/><use xlink:href="#bY" mask="url(#bZ)"/><path style="stroke:none;fill-rule:evenodd;fill:#3a9bf7;fill-opacity:1" d="M24.89 25.703q-.222.105-.468.14-.469.023-.938.016l-4.468-.062q2.75.007 5.5-.016.174-.04.343-.11.031.009.032.032m0 0"/><use xlink:href="#ca" mask="url(#cb)"/><use xlink:href="#cc" mask="url(#cd)"/><use xlink:href="#ce" mask="url(#cf)"/><use xlink:href="#cg" mask="url(#ch)"/><use xlink:href="#ci" mask="url(#cj)"/><use xlink:href="#ck" mask="url(#cl)"/><use xlink:href="#cm" mask="url(#cn)"/><use xlink:href="#co" mask="url(#cp)"/></svg>