<?xml version="1.0" encoding="UTF-8"?>
<!DOCTYPE svg PUBLIC "-//W3C//DTD SVG 1.1//EN" "http://www.w3.org/Graphics/SVG/1.1/DTD/svg11.dtd">
<svg xmlns="http://www.w3.org/2000/svg" version="1.1" width="1024px" height="1024px" style="shape-rendering:geometricPrecision; text-rendering:geometricPrecision; image-rendering:optimizeQuality; fill-rule:evenodd; clip-rule:evenodd" xmlns:xlink="http://www.w3.org/1999/xlink">
<g><path style="opacity:0.004" fill="#18191a" d="M 271.5,146.5 C 272.833,147.167 272.833,147.167 271.5,146.5 Z"/></g>
<g><path style="opacity:0.004" fill="#16181a" d="M 337.5,146.5 C 338.833,147.167 338.833,147.167 337.5,146.5 Z"/></g>
<g><path style="opacity:0.004" fill="#161819" d="M 351.5,146.5 C 352.833,147.167 352.833,147.167 351.5,146.5 Z"/></g>
<g><path style="opacity:0.004" fill="#18191a" d="M 367.5,146.5 C 368.833,147.167 368.833,147.167 367.5,146.5 Z"/></g>
<g><path style="opacity:0.008" fill="#181d1a" d="M 433.5,146.5 C 434.833,147.167 434.833,147.167 433.5,146.5 Z"/></g>
<g><path style="opacity:0.004" fill="#191b19" d="M 457.5,146.5 C 458.833,147.167 458.833,147.167 457.5,146.5 Z"/></g>
<g><path style="opacity:0.004" fill="#19191c" d="M 599.5,146.5 C 600.833,147.167 600.833,147.167 599.5,146.5 Z"/></g>
<g><path style="opacity:0.004" fill="#161a1b" d="M 601.5,146.5 C 602.833,147.167 602.833,147.167 601.5,146.5 Z"/></g>
<g><path style="opacity:0.004" fill="#171819" d="M 607.5,146.5 C 608.833,147.167 608.833,147.167 607.5,146.5 Z"/></g>
<g><path style="opacity:0.004" fill="#19181a" d="M 615.5,147.5 C 615.897,146.475 616.563,146.308 617.5,147C 616.906,147.464 616.239,147.631 615.5,147.5 Z"/></g>
<g><path style="opacity:0.004" fill="#171a1c" d="M 655.5,146.5 C 656.833,147.167 656.833,147.167 655.5,146.5 Z"/></g>
<g><path style="opacity:0.004" fill="#18191c" d="M 679.5,146.5 C 680.833,147.167 680.833,147.167 679.5,146.5 Z"/></g>
<g><path style="opacity:0.004" fill="#191b1e" d="M 689.5,146.5 C 690.833,147.167 690.833,147.167 689.5,146.5 Z"/></g>
<g><path style="opacity:0.004" fill="#17191b" d="M 294.5,147.5 C 295.833,148.167 295.833,148.167 294.5,147.5 Z"/></g>
<g><path style="opacity:0.004" fill="#18181c" d="M 440.5,147.5 C 441.833,148.167 441.833,148.167 440.5,147.5 Z"/></g>
<g><path style="opacity:0.004" fill="#16191b" d="M 536.5,147.5 C 537.833,148.167 537.833,148.167 536.5,147.5 Z"/></g>
<g><path style="opacity:0.012" fill="#1b1b20" d="M 783.5,147.5 C 784.833,148.167 784.833,148.167 783.5,147.5 Z"/></g>
<g><path style="opacity:0.997" fill="#000000" d="M 820.5,160.5 C 821.899,161.89 823.566,162.89 825.5,163.5C 825.842,164.338 826.508,164.672 827.5,164.5C 828.579,166.543 830.246,167.876 832.5,168.5C 833.436,169.974 834.77,170.974 836.5,171.5C 853.821,187.137 864.654,206.47 869,229.5C 869.173,248.74 869.673,267.907 870.5,287C 869.382,451.703 869.382,614.369 870.5,775C 870.519,795.103 865.185,813.603 854.5,830.5C 833.48,859.259 804.98,873.259 769,872.5C 594.743,871.405 420.409,871.405 246,872.5C 226.662,872.109 208.829,866.775 192.5,856.5C 189.874,854.177 187.207,851.843 184.5,849.5C 179.61,844.732 174.944,839.732 170.5,834.5C 164.956,825.409 159.956,816.076 155.5,806.5C 156.833,805.833 156.833,805.167 155.5,804.5C 154.831,799.486 153.997,794.486 153,789.5C 152.822,777.924 152.322,766.424 151.5,755C 152.384,582.325 152.384,414.325 151.5,251C 151.535,234.629 154.535,218.796 160.5,203.5C 167.468,191.268 176.135,180.268 186.5,170.5C 190.805,167.677 195.138,164.844 199.5,162C 199.93,161.08 200.264,160.247 200.5,159.5C 201.086,159.709 201.586,160.043 202,160.5C 212.102,154.8 222.935,151.3 234.5,150C 292.07,149.831 349.57,149.331 407,148.5C 533.409,148.923 660.242,149.423 787.5,150C 799.063,151.799 810.063,155.299 820.5,160.5 Z M 238.5,196.5 C 244.176,196.334 249.843,196.501 255.5,197C 252.5,197.333 249.5,197.667 246.5,198C 266.073,198.173 285.573,198.673 305,199.5C 376.096,198.668 447.263,198.168 518.5,198C 517.167,197.667 515.833,197.333 514.5,197C 516.5,196.333 518.5,196.333 520.5,197C 520.167,197.333 519.833,197.667 519.5,198C 527.745,198.183 535.912,198.683 544,199.5C 586.857,198.392 629.857,198.392 673,199.5C 706.095,198.67 739.262,198.17 772.5,198C 766.833,197.667 761.167,197.333 755.5,197C 764.827,196.5 774.161,196.334 783.5,196.5C 794.661,198.216 803.661,202.883 810.5,210.5C 818.153,217.806 822.653,226.806 824,237.5C 823.408,272.867 823.575,307.867 824.5,342.5C 805.257,342.174 786.09,342.507 767,343.5C 762.256,329.937 753.756,319.603 741.5,312.5C 734.434,309.819 727.101,308.153 719.5,307.5C 711.899,308.153 704.566,309.819 697.5,312.5C 686.675,319.117 678.341,328.117 672.5,339.5C 671.118,346.679 669.785,353.845 668.5,361C 670.532,366.613 672.199,372.446 673.5,378.5C 675.099,379.799 675.599,381.465 675,383.5C 671.283,386.394 667.783,389.394 664.5,392.5C 662.167,395.5 659.5,398.167 656.5,400.5C 655.496,401.683 654.662,403.016 654,404.5C 649.28,408.394 644.78,412.394 640.5,416.5C 638.222,419.951 635.222,422.451 631.5,424C 631.833,424.333 632.167,424.667 632.5,425C 616.917,441.585 600.917,457.918 584.5,474C 565.178,462.909 545.844,463.242 526.5,475C 518.16,481.818 512.493,490.318 509.5,500.5C 470.5,500.5 431.5,500.5 392.5,500.5C 390.562,492.892 386.896,486.226 381.5,480.5C 375.044,474.608 367.711,470.275 359.5,467.5C 345.97,464.483 332.97,466.15 320.5,472.5C 296.627,490.188 290.293,512.354 301.5,539C 298.598,539.919 298.265,540.752 300.5,541.5C 298.167,544.5 295.5,547.167 292.5,549.5C 287.5,555.167 282.167,560.5 276.5,565.5C 271.5,571.167 266.167,576.5 260.5,581.5C 257.167,585.5 253.5,589.167 249.5,592.5C 245.5,597.167 241.167,601.5 236.5,605.5C 235.5,607.167 234.167,608.5 232.5,609.5C 227.5,615.167 222.167,620.5 216.5,625.5C 214.5,628.167 212.167,630.5 209.5,632.5C 206.543,636.792 203.21,640.792 199.5,644.5C 198.172,643.09 198.505,641.924 200.5,641C 199.18,631.729 198.514,622.229 198.5,612.5C 198.91,487.553 198.91,362.553 198.5,237.5C 199.47,226.227 204.137,216.893 212.5,209.5C 219.484,202.008 228.151,197.675 238.5,196.5 Z M 724.5,342.5 C 726.963,342.781 729.13,343.781 731,345.5C 736.372,351.958 737.372,358.958 734,366.5C 732.924,369.079 731.091,370.746 728.5,371.5C 728.027,372.906 727.027,373.573 725.5,373.5C 712.209,376.982 704.543,371.649 702.5,357.5C 704.626,344.458 711.959,339.458 724.5,342.5 Z M 335.5,528.5 C 331.316,525.48 329.316,521.313 329.5,516C 329.359,509.098 332.359,504.265 338.5,501.5C 339.497,502.713 340.497,502.546 341.5,501C 341.272,500.601 340.938,500.435 340.5,500.5C 350.577,497.117 357.743,500.45 362,510.5C 364.392,525.271 358.225,532.771 343.5,533C 340.316,532.246 337.649,530.746 335.5,528.5 Z M 563.5,501.5 C 564.492,501.328 565.158,501.662 565.5,502.5C 572.408,508.077 574.241,515.077 571,523.5C 570.004,525.66 568.504,527.327 566.5,528.5C 559.189,535.041 551.856,535.041 544.5,528.5C 537.759,521.589 536.926,513.923 542,505.5C 548.391,498.732 555.557,497.398 563.5,501.5 Z"/></g>
<g><path style="opacity:0.008" fill="#16191c" d="M 216.5,151.5 C 217.833,152.167 217.833,152.167 216.5,151.5 Z"/></g>
<g><path style="opacity:0.004" fill="#1a1c1e" d="M 806.5,152.5 C 807.833,153.167 807.833,153.167 806.5,152.5 Z"/></g>
<g><path style="opacity:0.004" fill="#14181d" d="M 820.5,159.5 C 821.833,160.167 821.833,160.167 820.5,159.5 Z"/></g>
<g><path style="opacity:0.008" fill="#1a1e1e" d="M 825.5,162.5 C 826.833,163.167 826.833,163.167 825.5,162.5 Z"/></g>
<g><path style="opacity:0.004" fill="#1a1b1c" d="M 827.5,163.5 C 828.833,164.167 828.833,164.167 827.5,163.5 Z"/></g>
<g><path style="opacity:0.004" fill="#17181b" d="M 187.5,167.5 C 188.833,168.167 188.833,168.167 187.5,167.5 Z"/></g>
<g><path style="opacity:0.004" fill="#191a1e" d="M 832.5,167.5 C 833.833,168.167 833.833,168.167 832.5,167.5 Z"/></g>
<g><path style="opacity:0.004" fill="#15171b" d="M 186.5,170.5 C 185.833,169.167 185.833,169.167 186.5,170.5 Z"/></g>
<g><path style="opacity:0.004" fill="#1a1d1e" d="M 836.5,170.5 C 837.833,171.167 837.833,171.167 836.5,170.5 Z"/></g>
<g><path style="opacity:0.004" fill="#16171c" d="M 175.5,178.5 C 176.833,179.167 176.833,179.167 175.5,178.5 Z"/></g>
<g><path style="opacity:0.032" fill="#0e0e10" d="M 238.5,196.5 C 420.167,195.167 601.833,195.167 783.5,196.5C 774.161,196.334 764.827,196.5 755.5,197C 761.167,197.333 766.833,197.667 772.5,198C 739.262,198.17 706.095,198.67 673,199.5C 629.857,198.392 586.857,198.392 544,199.5C 535.912,198.683 527.745,198.183 519.5,198C 519.833,197.667 520.167,197.333 520.5,197C 518.5,196.333 516.5,196.333 514.5,197C 515.833,197.333 517.167,197.667 518.5,198C 447.263,198.168 376.096,198.668 305,199.5C 285.573,198.673 266.073,198.173 246.5,198C 249.5,197.667 252.5,197.333 255.5,197C 249.843,196.501 244.176,196.334 238.5,196.5 Z"/></g>
<g><path style="opacity:0.004" fill="#151a1a" d="M 160.5,203.5 C 159.833,202.167 159.833,202.167 160.5,203.5 Z"/></g>
<g><path style="opacity:0.004" fill="#17181a" d="M 156.5,208.5 C 157.833,209.167 157.833,209.167 156.5,208.5 Z"/></g>
<g><path style="opacity:0.004" fill="#171a20" d="M 868.5,220.5 C 869.833,221.167 869.833,221.167 868.5,220.5 Z"/></g>
<g><path style="opacity:0.004" fill="#16181f" d="M 869.5,226.5 C 870.833,227.167 870.833,227.167 869.5,226.5 Z"/></g>
<g><path style="opacity:0.004" fill="#141a1e" d="M 870.5,232.5 C 871.833,233.167 871.833,233.167 870.5,232.5 Z"/></g>
<g><path style="opacity:0.004" fill="#0e161f" d="M 870.5,298.5 C 871.833,299.167 871.833,299.167 870.5,298.5 Z"/></g>
<g><path style="opacity:1" fill="#3a9eed" d="M 750.5,397.5 C 744.668,403.083 737.668,406.583 729.5,408C 722.06,408.928 714.726,408.594 707.5,407C 707.728,406.601 708.062,406.435 708.5,406.5C 723.711,408.856 737.711,405.856 750.5,397.5 Z"/></g>
<g><path style="opacity:1" fill="#3ca6f8" d="M 706.5,405.5 C 704.329,406.245 701.995,406.412 699.5,406C 667.271,438.062 635.271,470.228 603.5,502.5C 603.351,501.448 603.517,500.448 604,499.5C 635.833,467.667 667.667,435.833 699.5,404C 701.831,404.157 704.164,404.657 706.5,405.5 Z"/></g>
<g><path style="opacity:0.26" fill="#0d131b" d="M 198.5,237.5 C 198.91,362.553 198.91,487.553 198.5,612.5C 198.514,622.229 199.18,631.729 200.5,641C 198.505,641.924 198.172,643.09 199.5,644.5C 199.217,645.289 198.717,645.956 198,646.5C 197.167,509.999 197.334,373.666 198.5,237.5 Z"/></g>
<g><path style="opacity:0.999" fill="#3c9dec" d="M 562.5,565.5 C 539.489,568.791 521.822,559.125 509.5,536.5C 470.833,535.167 432.167,535.167 393.5,536.5C 385.367,552.129 372.7,561.962 355.5,566C 345.745,566.695 336.079,566.361 326.5,565C 321.908,570.1 316.908,574.6 311.5,578.5C 316.297,573.202 321.297,568.035 326.5,563C 349.078,569.314 368.578,564.148 385,547.5C 388.005,543.494 390.505,539.16 392.5,534.5C 431.833,533.167 471.167,533.167 510.5,534.5C 520.791,556.425 538.124,566.759 562.5,565.5 Z"/></g>
<g><path style="opacity:0.992" fill="#3ba2f1" d="M 605.5,521.5 C 606.152,522.449 606.486,523.615 606.5,525C 604.491,536.877 598.825,546.377 589.5,553.5C 598.54,544.754 603.873,534.087 605.5,521.5 Z"/></g>
<g><path style="opacity:1" fill="#3b95db" d="M 766.5,376.5 C 786.167,376.5 805.833,376.5 825.5,376.5C 825.83,512.874 825.497,649.207 824.5,785.5C 823.5,649.668 823.167,513.668 823.5,377.5C 804.59,377.174 785.757,377.507 767,378.5C 766.536,377.906 766.369,377.239 766.5,376.5 Z"/></g>
<g><path style="opacity:1" fill="#3ba6f3" d="M 307.5,582.5 C 271.527,618.806 235.527,655.14 199.5,691.5C 198.833,691.5 198.5,691.167 198.5,690.5C 234.243,653.756 270.576,617.756 307.5,582.5 Z"/></g>
<g><path style="opacity:0.998" fill="#3083e7" d="M 766.5,376.5 C 766.369,377.239 766.536,377.906 767,378.5C 785.757,377.507 804.59,377.174 823.5,377.5C 823.167,513.668 823.5,649.668 824.5,785.5C 821.192,802.474 811.858,814.807 796.5,822.5C 796.44,821.957 796.107,821.624 795.5,821.5C 791.931,822.967 788.264,824.134 784.5,825C 725.834,825.5 667.168,825.667 608.5,825.5C 487.833,825.5 367.167,825.5 246.5,825.5C 230.658,824.745 217.658,818.411 207.5,806.5C 204.159,803.16 201.826,799.16 200.5,794.5C 201.097,794.265 201.43,793.765 201.5,793C 200.922,791.189 200.422,789.355 200,787.5C 199.5,755.502 199.333,723.502 199.5,691.5C 235.527,655.14 271.527,618.806 307.5,582.5C 308.5,580.833 309.833,579.5 311.5,578.5C 316.908,574.6 321.908,570.1 326.5,565C 336.079,566.361 345.745,566.695 355.5,566C 372.7,561.962 385.367,552.129 393.5,536.5C 432.167,535.167 470.833,535.167 509.5,536.5C 521.822,559.125 539.489,568.791 562.5,565.5C 563.568,564.566 564.901,564.232 566.5,564.5C 566.735,565.097 567.235,565.43 568,565.5C 576.362,563.408 583.528,559.408 589.5,553.5C 598.825,546.377 604.491,536.877 606.5,525C 606.486,523.615 606.152,522.449 605.5,521.5C 605.849,515.032 605.183,508.699 603.5,502.5C 635.271,470.228 667.271,438.062 699.5,406C 701.995,406.412 704.329,406.245 706.5,405.5C 707.492,405.328 708.158,405.662 708.5,406.5C 708.062,406.435 707.728,406.601 707.5,407C 714.726,408.594 722.06,408.928 729.5,408C 737.668,406.583 744.668,403.083 750.5,397.5C 753.796,393.702 757.296,390.036 761,386.5C 763.13,383.233 764.963,379.9 766.5,376.5 Z"/></g>
<g><path style="opacity:1" fill="#3ca2eb" d="M 589.5,553.5 C 583.528,559.408 576.362,563.408 568,565.5C 567.235,565.43 566.735,565.097 566.5,564.5C 574.853,562.156 582.519,558.489 589.5,553.5 Z"/></g>
<g><path style="opacity:0.994" fill="#3898f3" d="M 198.5,690.5 C 198.5,691.167 198.833,691.5 199.5,691.5C 199.333,723.502 199.5,755.502 200,787.5C 200.422,789.355 200.922,791.189 201.5,793C 201.43,793.765 201.097,794.265 200.5,794.5C 199.241,790.952 198.407,787.285 198,783.5C 197.169,752.331 197.336,721.331 198.5,690.5 Z"/></g>
<g><path style="opacity:0.008" fill="#171d20" d="M 152.5,796.5 C 153.833,797.167 153.833,797.167 152.5,796.5 Z"/></g>
<g><path style="opacity:0.004" fill="#181a21" d="M 151.5,802.5 C 152.833,803.167 152.833,803.167 151.5,802.5 Z"/></g>
<g><path style="opacity:0.012" fill="#171921" d="M 153.5,801.5 C 154.525,801.897 154.692,802.563 154,803.5C 153.536,802.906 153.369,802.239 153.5,801.5 Z"/></g>
<g><path style="opacity:0.004" fill="#1a1f2b" d="M 867.5,804.5 C 868.833,805.167 868.833,805.167 867.5,804.5 Z"/></g>
<g><path style="opacity:0.012" fill="#171b21" d="M 155.5,804.5 C 155.5,805.167 155.5,805.833 155.5,806.5C 154.167,805.833 154.167,805.167 155.5,804.5 Z"/></g>
<g><path style="opacity:0.004" fill="#161c24" d="M 864.5,812.5 C 865.833,813.167 865.833,813.167 864.5,812.5 Z"/></g>
<g><path style="opacity:0.004" fill="#14191f" d="M 159.5,818.5 C 160.833,819.167 160.833,819.167 159.5,818.5 Z"/></g>
<g><path style="opacity:0.008" fill="#14191f" d="M 160.5,820.5 C 161.833,821.167 161.833,821.167 160.5,820.5 Z"/></g>
<g><path style="opacity:0.996" fill="#3a9ae8" d="M 207.5,806.5 C 217.658,818.411 230.658,824.745 246.5,825.5C 246.833,826.167 247.167,826.833 247.5,827.5C 231.662,826.664 218.496,820.331 208,808.5C 207.536,807.906 207.369,807.239 207.5,806.5 Z"/></g>
<g><path style="opacity:0.004" fill="#171821" d="M 161.5,822.5 C 162.833,823.167 162.833,823.167 161.5,822.5 Z"/></g>
<g><path style="opacity:1" fill="#3a9bf7" d="M 796.5,822.5 C 791.771,824.767 786.771,826.267 781.5,827C 771.506,827.5 761.506,827.666 751.5,827.5C 703.833,826.833 656.167,826.167 608.5,825.5C 667.168,825.667 725.834,825.5 784.5,825C 788.264,824.134 791.931,822.967 795.5,821.5C 796.107,821.624 796.44,821.957 796.5,822.5 Z"/></g>
<g><path style="opacity:0.996" fill="#3c9ff7" d="M 246.5,825.5 C 367.167,825.5 487.833,825.5 608.5,825.5C 656.167,826.167 703.833,826.833 751.5,827.5C 583.5,827.5 415.5,827.5 247.5,827.5C 247.167,826.833 246.833,826.167 246.5,825.5 Z"/></g>
<g><path style="opacity:0.008" fill="#121621" d="M 854.5,830.5 C 855.833,831.167 855.833,831.167 854.5,830.5 Z"/></g>
<g><path style="opacity:0.004" fill="#131a20" d="M 167.5,832.5 C 168.833,833.167 168.833,833.167 167.5,832.5 Z"/></g>
<g><path style="opacity:0.004" fill="#141a21" d="M 170.5,834.5 C 169.833,835.167 169.833,835.167 170.5,834.5 Z"/></g>
<g><path style="opacity:0.004" fill="#151822" d="M 184.5,849.5 C 183.833,850.167 183.833,850.167 184.5,849.5 Z"/></g>
<g><path style="opacity:0.008" fill="#141a25" d="M 192.5,856.5 C 191.833,857.167 191.833,857.167 192.5,856.5 Z"/></g>
<g><path style="opacity:0.008" fill="#151b25" d="M 215.5,868.5 C 216.833,869.167 216.833,869.167 215.5,868.5 Z"/></g>
<g><path style="opacity:0.004" fill="#202427" d="M 307.5,933.5 C 308.833,934.167 308.833,934.167 307.5,933.5 Z"/></g>
</svg>
