<?xml version="1.0" encoding="UTF-8"?>
<svg xmlns="http://www.w3.org/2000/svg" xmlns:xlink="http://www.w3.org/1999/xlink" width="32px" height="32px" viewBox="0 0 32 32" version="1.1">
<defs>
<filter id="alpha" filterUnits="objectBoundingBox" x="0%" y="0%" width="100%" height="100%">
  <feColorMatrix type="matrix" in="SourceGraphic" values="0 0 0 0 1 0 0 0 0 1 0 0 0 0 1 0 0 0 1 0"/>
</filter>
<mask id="mask0">
  <g filter="url(#alpha)">
<rect x="0" y="0" width="32" height="32" style="fill:rgb(0%,0%,0%);fill-opacity:0.00392157;stroke:none;"/>
  </g>
</mask>
<clipPath id="clip1">
  <rect x="0" y="0" width="32" height="32"/>
</clipPath>
<g id="surface5" clip-path="url(#clip1)">
<path style=" stroke:none;fill-rule:evenodd;fill:rgb(9.411765%,9.803922%,10.196079%);fill-opacity:1;" d="M 8.484375 4.578125 C 8.527344 4.597656 8.527344 4.597656 8.484375 4.578125 Z M 8.484375 4.578125 "/>
</g>
<mask id="mask1">
  <g filter="url(#alpha)">
<rect x="0" y="0" width="32" height="32" style="fill:rgb(0%,0%,0%);fill-opacity:0.00392157;stroke:none;"/>
  </g>
</mask>
<clipPath id="clip2">
  <rect x="0" y="0" width="32" height="32"/>
</clipPath>
<g id="surface8" clip-path="url(#clip2)">
<path style=" stroke:none;fill-rule:evenodd;fill:rgb(8.627451%,9.411765%,10.196079%);fill-opacity:1;" d="M 10.546875 4.578125 C 10.589844 4.597656 10.589844 4.597656 10.546875 4.578125 Z M 10.546875 4.578125 "/>
</g>
<mask id="mask2">
  <g filter="url(#alpha)">
<rect x="0" y="0" width="32" height="32" style="fill:rgb(0%,0%,0%);fill-opacity:0.00392157;stroke:none;"/>
  </g>
</mask>
<clipPath id="clip3">
  <rect x="0" y="0" width="32" height="32"/>
</clipPath>
<g id="surface11" clip-path="url(#clip3)">
<path style=" stroke:none;fill-rule:evenodd;fill:rgb(8.627451%,9.411765%,9.803922%);fill-opacity:1;" d="M 10.984375 4.578125 C 11.027344 4.597656 11.027344 4.597656 10.984375 4.578125 Z M 10.984375 4.578125 "/>
</g>
<mask id="mask3">
  <g filter="url(#alpha)">
<rect x="0" y="0" width="32" height="32" style="fill:rgb(0%,0%,0%);fill-opacity:0.00392157;stroke:none;"/>
  </g>
</mask>
<clipPath id="clip4">
  <rect x="0" y="0" width="32" height="32"/>
</clipPath>
<g id="surface14" clip-path="url(#clip4)">
<path style=" stroke:none;fill-rule:evenodd;fill:rgb(9.411765%,9.803922%,10.196079%);fill-opacity:1;" d="M 11.484375 4.578125 C 11.527344 4.597656 11.527344 4.597656 11.484375 4.578125 Z M 11.484375 4.578125 "/>
</g>
<mask id="mask4">
  <g filter="url(#alpha)">
<rect x="0" y="0" width="32" height="32" style="fill:rgb(0%,0%,0%);fill-opacity:0.00784314;stroke:none;"/>
  </g>
</mask>
<clipPath id="clip5">
  <rect x="0" y="0" width="32" height="32"/>
</clipPath>
<g id="surface17" clip-path="url(#clip5)">
<path style=" stroke:none;fill-rule:evenodd;fill:rgb(9.411765%,11.372549%,10.196079%);fill-opacity:1;" d="M 13.546875 4.578125 C 13.589844 4.597656 13.589844 4.597656 13.546875 4.578125 Z M 13.546875 4.578125 "/>
</g>
<mask id="mask5">
  <g filter="url(#alpha)">
<rect x="0" y="0" width="32" height="32" style="fill:rgb(0%,0%,0%);fill-opacity:0.00392157;stroke:none;"/>
  </g>
</mask>
<clipPath id="clip6">
  <rect x="0" y="0" width="32" height="32"/>
</clipPath>
<g id="surface20" clip-path="url(#clip6)">
<path style=" stroke:none;fill-rule:evenodd;fill:rgb(9.803922%,10.588235%,9.803922%);fill-opacity:1;" d="M 14.296875 4.578125 C 14.339844 4.597656 14.339844 4.597656 14.296875 4.578125 Z M 14.296875 4.578125 "/>
</g>
<mask id="mask6">
  <g filter="url(#alpha)">
<rect x="0" y="0" width="32" height="32" style="fill:rgb(0%,0%,0%);fill-opacity:0.00392157;stroke:none;"/>
  </g>
</mask>
<clipPath id="clip7">
  <rect x="0" y="0" width="32" height="32"/>
</clipPath>
<g id="surface23" clip-path="url(#clip7)">
<path style=" stroke:none;fill-rule:evenodd;fill:rgb(9.803922%,9.803922%,10.980392%);fill-opacity:1;" d="M 18.734375 4.578125 C 18.777344 4.597656 18.777344 4.597656 18.734375 4.578125 Z M 18.734375 4.578125 "/>
</g>
<mask id="mask7">
  <g filter="url(#alpha)">
<rect x="0" y="0" width="32" height="32" style="fill:rgb(0%,0%,0%);fill-opacity:0.00392157;stroke:none;"/>
  </g>
</mask>
<clipPath id="clip8">
  <rect x="0" y="0" width="32" height="32"/>
</clipPath>
<g id="surface26" clip-path="url(#clip8)">
<path style=" stroke:none;fill-rule:evenodd;fill:rgb(8.627451%,10.196079%,10.588235%);fill-opacity:1;" d="M 18.796875 4.578125 C 18.839844 4.597656 18.839844 4.597656 18.796875 4.578125 Z M 18.796875 4.578125 "/>
</g>
<mask id="mask8">
  <g filter="url(#alpha)">
<rect x="0" y="0" width="32" height="32" style="fill:rgb(0%,0%,0%);fill-opacity:0.00392157;stroke:none;"/>
  </g>
</mask>
<clipPath id="clip9">
  <rect x="0" y="0" width="32" height="32"/>
</clipPath>
<g id="surface29" clip-path="url(#clip9)">
<path style=" stroke:none;fill-rule:evenodd;fill:rgb(9.019608%,9.411765%,9.803922%);fill-opacity:1;" d="M 18.984375 4.578125 C 19.027344 4.597656 19.027344 4.597656 18.984375 4.578125 Z M 18.984375 4.578125 "/>
</g>
<mask id="mask9">
  <g filter="url(#alpha)">
<rect x="0" y="0" width="32" height="32" style="fill:rgb(0%,0%,0%);fill-opacity:0.00392157;stroke:none;"/>
  </g>
</mask>
<clipPath id="clip10">
  <rect x="0" y="0" width="32" height="32"/>
</clipPath>
<g id="surface32" clip-path="url(#clip10)">
<path style=" stroke:none;fill-rule:evenodd;fill:rgb(9.803922%,9.411765%,10.196079%);fill-opacity:1;" d="M 19.234375 4.609375 C 19.246094 4.578125 19.269531 4.570312 19.296875 4.59375 C 19.277344 4.609375 19.257812 4.613281 19.234375 4.609375 Z M 19.234375 4.609375 "/>
</g>
<mask id="mask10">
  <g filter="url(#alpha)">
<rect x="0" y="0" width="32" height="32" style="fill:rgb(0%,0%,0%);fill-opacity:0.00392157;stroke:none;"/>
  </g>
</mask>
<clipPath id="clip11">
  <rect x="0" y="0" width="32" height="32"/>
</clipPath>
<g id="surface35" clip-path="url(#clip11)">
<path style=" stroke:none;fill-rule:evenodd;fill:rgb(9.019608%,10.196079%,10.980392%);fill-opacity:1;" d="M 20.484375 4.578125 C 20.527344 4.597656 20.527344 4.597656 20.484375 4.578125 Z M 20.484375 4.578125 "/>
</g>
<mask id="mask11">
  <g filter="url(#alpha)">
<rect x="0" y="0" width="32" height="32" style="fill:rgb(0%,0%,0%);fill-opacity:0.00392157;stroke:none;"/>
  </g>
</mask>
<clipPath id="clip12">
  <rect x="0" y="0" width="32" height="32"/>
</clipPath>
<g id="surface38" clip-path="url(#clip12)">
<path style=" stroke:none;fill-rule:evenodd;fill:rgb(9.411765%,9.803922%,10.980392%);fill-opacity:1;" d="M 21.234375 4.578125 C 21.277344 4.597656 21.277344 4.597656 21.234375 4.578125 Z M 21.234375 4.578125 "/>
</g>
<mask id="mask12">
  <g filter="url(#alpha)">
<rect x="0" y="0" width="32" height="32" style="fill:rgb(0%,0%,0%);fill-opacity:0.00392157;stroke:none;"/>
  </g>
</mask>
<clipPath id="clip13">
  <rect x="0" y="0" width="32" height="32"/>
</clipPath>
<g id="surface41" clip-path="url(#clip13)">
<path style=" stroke:none;fill-rule:evenodd;fill:rgb(9.803922%,10.588235%,11.764706%);fill-opacity:1;" d="M 21.546875 4.578125 C 21.589844 4.597656 21.589844 4.597656 21.546875 4.578125 Z M 21.546875 4.578125 "/>
</g>
<mask id="mask13">
  <g filter="url(#alpha)">
<rect x="0" y="0" width="32" height="32" style="fill:rgb(0%,0%,0%);fill-opacity:0.00392157;stroke:none;"/>
  </g>
</mask>
<clipPath id="clip14">
  <rect x="0" y="0" width="32" height="32"/>
</clipPath>
<g id="surface44" clip-path="url(#clip14)">
<path style=" stroke:none;fill-rule:evenodd;fill:rgb(9.019608%,9.803922%,10.588235%);fill-opacity:1;" d="M 9.203125 4.609375 C 9.246094 4.628906 9.246094 4.628906 9.203125 4.609375 Z M 9.203125 4.609375 "/>
</g>
<mask id="mask14">
  <g filter="url(#alpha)">
<rect x="0" y="0" width="32" height="32" style="fill:rgb(0%,0%,0%);fill-opacity:0.00392157;stroke:none;"/>
  </g>
</mask>
<clipPath id="clip15">
  <rect x="0" y="0" width="32" height="32"/>
</clipPath>
<g id="surface47" clip-path="url(#clip15)">
<path style=" stroke:none;fill-rule:evenodd;fill:rgb(9.411765%,9.411765%,10.980392%);fill-opacity:1;" d="M 13.765625 4.609375 C 13.808594 4.628906 13.808594 4.628906 13.765625 4.609375 Z M 13.765625 4.609375 "/>
</g>
<mask id="mask15">
  <g filter="url(#alpha)">
<rect x="0" y="0" width="32" height="32" style="fill:rgb(0%,0%,0%);fill-opacity:0.00392157;stroke:none;"/>
  </g>
</mask>
<clipPath id="clip16">
  <rect x="0" y="0" width="32" height="32"/>
</clipPath>
<g id="surface50" clip-path="url(#clip16)">
<path style=" stroke:none;fill-rule:evenodd;fill:rgb(8.627451%,9.803922%,10.588235%);fill-opacity:1;" d="M 16.765625 4.609375 C 16.808594 4.628906 16.808594 4.628906 16.765625 4.609375 Z M 16.765625 4.609375 "/>
</g>
<mask id="mask16">
  <g filter="url(#alpha)">
<rect x="0" y="0" width="32" height="32" style="fill:rgb(0%,0%,0%);fill-opacity:0.0117647;stroke:none;"/>
  </g>
</mask>
<clipPath id="clip17">
  <rect x="0" y="0" width="32" height="32"/>
</clipPath>
<g id="surface53" clip-path="url(#clip17)">
<path style=" stroke:none;fill-rule:evenodd;fill:rgb(10.588235%,10.588235%,12.54902%);fill-opacity:1;" d="M 24.484375 4.609375 C 24.527344 4.628906 24.527344 4.628906 24.484375 4.609375 Z M 24.484375 4.609375 "/>
</g>
<mask id="mask17">
  <g filter="url(#alpha)">
<rect x="0" y="0" width="32" height="32" style="fill:rgb(0%,0%,0%);fill-opacity:0.996078;stroke:none;"/>
  </g>
</mask>
<clipPath id="clip18">
  <rect x="0" y="0" width="32" height="32"/>
</clipPath>
<g id="surface56" clip-path="url(#clip18)">
<path style=" stroke:none;fill-rule:evenodd;fill:rgb(0%,0%,0%);fill-opacity:1;" d="M 25.640625 5.015625 C 25.683594 5.058594 25.738281 5.089844 25.796875 5.109375 C 25.808594 5.136719 25.828125 5.144531 25.859375 5.140625 C 25.894531 5.203125 25.945312 5.246094 26.015625 5.265625 C 26.042969 5.3125 26.085938 5.34375 26.140625 5.359375 C 26.683594 5.847656 27.019531 6.453125 27.15625 7.171875 C 27.160156 7.773438 27.175781 8.371094 27.203125 8.96875 C 27.167969 14.117188 27.167969 19.199219 27.203125 24.21875 C 27.203125 24.847656 27.035156 25.425781 26.703125 25.953125 C 26.046875 26.851562 25.15625 27.289062 24.03125 27.265625 C 18.585938 27.230469 13.136719 27.230469 7.6875 27.265625 C 7.082031 27.253906 6.527344 27.085938 6.015625 26.765625 C 5.933594 26.691406 5.851562 26.621094 5.765625 26.546875 C 5.613281 26.398438 5.46875 26.242188 5.328125 26.078125 C 5.15625 25.792969 5 25.503906 4.859375 25.203125 C 4.902344 25.183594 4.902344 25.160156 4.859375 25.140625 C 4.839844 24.984375 4.8125 24.828125 4.78125 24.671875 C 4.777344 24.308594 4.761719 23.949219 4.734375 23.59375 C 4.761719 18.199219 4.761719 12.949219 4.734375 7.84375 C 4.734375 7.332031 4.828125 6.835938 5.015625 6.359375 C 5.234375 5.976562 5.503906 5.632812 5.828125 5.328125 C 5.960938 5.238281 6.097656 5.152344 6.234375 5.0625 C 6.246094 5.035156 6.257812 5.007812 6.265625 4.984375 C 6.285156 4.992188 6.300781 5 6.3125 5.015625 C 6.628906 4.835938 6.964844 4.726562 7.328125 4.6875 C 9.128906 4.683594 10.925781 4.667969 12.71875 4.640625 C 16.667969 4.652344 20.632812 4.667969 24.609375 4.6875 C 24.972656 4.742188 25.316406 4.851562 25.640625 5.015625 Z M 7.453125 6.140625 C 7.628906 6.136719 7.808594 6.140625 7.984375 6.15625 C 7.890625 6.167969 7.796875 6.175781 7.703125 6.1875 C 8.316406 6.191406 8.925781 6.207031 9.53125 6.234375 C 11.753906 6.207031 13.976562 6.191406 16.203125 6.1875 C 16.160156 6.175781 16.121094 6.167969 16.078125 6.15625 C 16.140625 6.136719 16.203125 6.136719 16.265625 6.15625 C 16.253906 6.167969 16.246094 6.175781 16.234375 6.1875 C 16.492188 6.191406 16.746094 6.207031 17 6.234375 C 18.339844 6.199219 19.683594 6.199219 21.03125 6.234375 C 22.066406 6.207031 23.101562 6.191406 24.140625 6.1875 C 23.964844 6.175781 23.785156 6.167969 23.609375 6.15625 C 23.902344 6.140625 24.191406 6.136719 24.484375 6.140625 C 24.832031 6.195312 25.113281 6.339844 25.328125 6.578125 C 25.566406 6.804688 25.707031 7.085938 25.75 7.421875 C 25.730469 8.527344 25.738281 9.621094 25.765625 10.703125 C 25.164062 10.691406 24.566406 10.703125 23.96875 10.734375 C 23.820312 10.308594 23.554688 9.988281 23.171875 9.765625 C 22.949219 9.683594 22.722656 9.628906 22.484375 9.609375 C 22.246094 9.628906 22.019531 9.683594 21.796875 9.765625 C 21.457031 9.972656 21.199219 10.253906 21.015625 10.609375 C 20.972656 10.832031 20.929688 11.058594 20.890625 11.28125 C 20.953125 11.457031 21.007812 11.640625 21.046875 11.828125 C 21.097656 11.867188 21.113281 11.921875 21.09375 11.984375 C 20.976562 12.074219 20.867188 12.167969 20.765625 12.265625 C 20.691406 12.359375 20.609375 12.441406 20.515625 12.515625 C 20.484375 12.550781 20.457031 12.59375 20.4375 12.640625 C 20.289062 12.761719 20.148438 12.886719 20.015625 13.015625 C 19.945312 13.125 19.851562 13.203125 19.734375 13.25 C 19.746094 13.261719 19.753906 13.269531 19.765625 13.28125 C 19.277344 13.800781 18.777344 14.308594 18.265625 14.8125 C 17.660156 14.464844 17.058594 14.476562 16.453125 14.84375 C 16.191406 15.058594 16.015625 15.324219 15.921875 15.640625 C 14.703125 15.640625 13.484375 15.640625 12.265625 15.640625 C 12.203125 15.402344 12.089844 15.195312 11.921875 15.015625 C 11.71875 14.832031 11.492188 14.695312 11.234375 14.609375 C 10.8125 14.515625 10.40625 14.566406 10.015625 14.765625 C 9.269531 15.320312 9.070312 16.011719 9.421875 16.84375 C 9.332031 16.871094 9.320312 16.898438 9.390625 16.921875 C 9.316406 17.015625 9.234375 17.097656 9.140625 17.171875 C 8.984375 17.347656 8.816406 17.515625 8.640625 17.671875 C 8.484375 17.847656 8.316406 18.015625 8.140625 18.171875 C 8.035156 18.296875 7.921875 18.410156 7.796875 18.515625 C 7.671875 18.660156 7.535156 18.796875 7.390625 18.921875 C 7.359375 18.972656 7.316406 19.015625 7.265625 19.046875 C 7.109375 19.222656 6.941406 19.390625 6.765625 19.546875 C 6.703125 19.628906 6.628906 19.703125 6.546875 19.765625 C 6.453125 19.898438 6.351562 20.023438 6.234375 20.140625 C 6.191406 20.097656 6.203125 20.058594 6.265625 20.03125 C 6.222656 19.742188 6.203125 19.445312 6.203125 19.140625 C 6.214844 15.234375 6.214844 11.328125 6.203125 7.421875 C 6.234375 7.070312 6.378906 6.777344 6.640625 6.546875 C 6.859375 6.3125 7.128906 6.175781 7.453125 6.140625 Z M 22.640625 10.703125 C 22.71875 10.710938 22.785156 10.742188 22.84375 10.796875 C 23.011719 11 23.042969 11.21875 22.9375 11.453125 C 22.902344 11.535156 22.847656 11.585938 22.765625 11.609375 C 22.75 11.652344 22.71875 11.675781 22.671875 11.671875 C 22.257812 11.78125 22.015625 11.613281 21.953125 11.171875 C 22.019531 10.765625 22.25 10.609375 22.640625 10.703125 Z M 10.484375 16.515625 C 10.355469 16.421875 10.292969 16.292969 10.296875 16.125 C 10.292969 15.910156 10.386719 15.757812 10.578125 15.671875 C 10.609375 15.710938 10.640625 15.703125 10.671875 15.65625 C 10.664062 15.644531 10.65625 15.636719 10.640625 15.640625 C 10.957031 15.535156 11.179688 15.640625 11.3125 15.953125 C 11.386719 16.414062 11.195312 16.648438 10.734375 16.65625 C 10.636719 16.632812 10.550781 16.585938 10.484375 16.515625 Z M 17.609375 15.671875 C 17.640625 15.667969 17.660156 15.675781 17.671875 15.703125 C 17.886719 15.878906 17.945312 16.097656 17.84375 16.359375 C 17.8125 16.425781 17.765625 16.480469 17.703125 16.515625 C 17.476562 16.71875 17.246094 16.71875 17.015625 16.515625 C 16.804688 16.300781 16.777344 16.058594 16.9375 15.796875 C 17.136719 15.585938 17.359375 15.542969 17.609375 15.671875 Z M 17.609375 15.671875 "/>
</g>
<mask id="mask18">
  <g filter="url(#alpha)">
<rect x="0" y="0" width="32" height="32" style="fill:rgb(0%,0%,0%);fill-opacity:0.00784314;stroke:none;"/>
  </g>
</mask>
<clipPath id="clip19">
  <rect x="0" y="0" width="32" height="32"/>
</clipPath>
<g id="surface59" clip-path="url(#clip19)">
<path style=" stroke:none;fill-rule:evenodd;fill:rgb(8.627451%,9.803922%,10.980392%);fill-opacity:1;" d="M 6.765625 4.734375 C 6.808594 4.753906 6.808594 4.753906 6.765625 4.734375 Z M 6.765625 4.734375 "/>
</g>
<mask id="mask19">
  <g filter="url(#alpha)">
<rect x="0" y="0" width="32" height="32" style="fill:rgb(0%,0%,0%);fill-opacity:0.00392157;stroke:none;"/>
  </g>
</mask>
<clipPath id="clip20">
  <rect x="0" y="0" width="32" height="32"/>
</clipPath>
<g id="surface62" clip-path="url(#clip20)">
<path style=" stroke:none;fill-rule:evenodd;fill:rgb(10.196079%,10.980392%,11.764706%);fill-opacity:1;" d="M 25.203125 4.765625 C 25.246094 4.785156 25.246094 4.785156 25.203125 4.765625 Z M 25.203125 4.765625 "/>
</g>
<mask id="mask20">
  <g filter="url(#alpha)">
<rect x="0" y="0" width="32" height="32" style="fill:rgb(0%,0%,0%);fill-opacity:0.00392157;stroke:none;"/>
  </g>
</mask>
<clipPath id="clip21">
  <rect x="0" y="0" width="32" height="32"/>
</clipPath>
<g id="surface65" clip-path="url(#clip21)">
<path style=" stroke:none;fill-rule:evenodd;fill:rgb(7.843138%,9.411765%,11.372549%);fill-opacity:1;" d="M 25.640625 4.984375 C 25.683594 5.003906 25.683594 5.003906 25.640625 4.984375 Z M 25.640625 4.984375 "/>
</g>
<mask id="mask21">
  <g filter="url(#alpha)">
<rect x="0" y="0" width="32" height="32" style="fill:rgb(0%,0%,0%);fill-opacity:0.00784314;stroke:none;"/>
  </g>
</mask>
<clipPath id="clip22">
  <rect x="0" y="0" width="32" height="32"/>
</clipPath>
<g id="surface68" clip-path="url(#clip22)">
<path style=" stroke:none;fill-rule:evenodd;fill:rgb(10.196079%,11.764706%,11.764706%);fill-opacity:1;" d="M 25.796875 5.078125 C 25.839844 5.097656 25.839844 5.097656 25.796875 5.078125 Z M 25.796875 5.078125 "/>
</g>
<mask id="mask22">
  <g filter="url(#alpha)">
<rect x="0" y="0" width="32" height="32" style="fill:rgb(0%,0%,0%);fill-opacity:0.00392157;stroke:none;"/>
  </g>
</mask>
<clipPath id="clip23">
  <rect x="0" y="0" width="32" height="32"/>
</clipPath>
<g id="surface71" clip-path="url(#clip23)">
<path style=" stroke:none;fill-rule:evenodd;fill:rgb(10.196079%,10.588235%,10.980392%);fill-opacity:1;" d="M 25.859375 5.109375 C 25.902344 5.128906 25.902344 5.128906 25.859375 5.109375 Z M 25.859375 5.109375 "/>
</g>
<mask id="mask23">
  <g filter="url(#alpha)">
<rect x="0" y="0" width="32" height="32" style="fill:rgb(0%,0%,0%);fill-opacity:0.00392157;stroke:none;"/>
  </g>
</mask>
<clipPath id="clip24">
  <rect x="0" y="0" width="32" height="32"/>
</clipPath>
<g id="surface74" clip-path="url(#clip24)">
<path style=" stroke:none;fill-rule:evenodd;fill:rgb(9.019608%,9.411765%,10.588235%);fill-opacity:1;" d="M 5.859375 5.234375 C 5.902344 5.253906 5.902344 5.253906 5.859375 5.234375 Z M 5.859375 5.234375 "/>
</g>
<mask id="mask24">
  <g filter="url(#alpha)">
<rect x="0" y="0" width="32" height="32" style="fill:rgb(0%,0%,0%);fill-opacity:0.00392157;stroke:none;"/>
  </g>
</mask>
<clipPath id="clip25">
  <rect x="0" y="0" width="32" height="32"/>
</clipPath>
<g id="surface77" clip-path="url(#clip25)">
<path style=" stroke:none;fill-rule:evenodd;fill:rgb(9.803922%,10.196079%,11.764706%);fill-opacity:1;" d="M 26.015625 5.234375 C 26.058594 5.253906 26.058594 5.253906 26.015625 5.234375 Z M 26.015625 5.234375 "/>
</g>
<mask id="mask25">
  <g filter="url(#alpha)">
<rect x="0" y="0" width="32" height="32" style="fill:rgb(0%,0%,0%);fill-opacity:0.00392157;stroke:none;"/>
  </g>
</mask>
<clipPath id="clip26">
  <rect x="0" y="0" width="32" height="32"/>
</clipPath>
<g id="surface80" clip-path="url(#clip26)">
<path style=" stroke:none;fill-rule:evenodd;fill:rgb(8.235294%,9.019608%,10.588235%);fill-opacity:1;" d="M 5.828125 5.328125 C 5.808594 5.285156 5.808594 5.285156 5.828125 5.328125 Z M 5.828125 5.328125 "/>
</g>
<mask id="mask26">
  <g filter="url(#alpha)">
<rect x="0" y="0" width="32" height="32" style="fill:rgb(0%,0%,0%);fill-opacity:0.00392157;stroke:none;"/>
  </g>
</mask>
<clipPath id="clip27">
  <rect x="0" y="0" width="32" height="32"/>
</clipPath>
<g id="surface83" clip-path="url(#clip27)">
<path style=" stroke:none;fill-rule:evenodd;fill:rgb(10.196079%,11.372549%,11.764706%);fill-opacity:1;" d="M 26.140625 5.328125 C 26.183594 5.347656 26.183594 5.347656 26.140625 5.328125 Z M 26.140625 5.328125 "/>
</g>
<mask id="mask27">
  <g filter="url(#alpha)">
<rect x="0" y="0" width="32" height="32" style="fill:rgb(0%,0%,0%);fill-opacity:0.00392157;stroke:none;"/>
  </g>
</mask>
<clipPath id="clip28">
  <rect x="0" y="0" width="32" height="32"/>
</clipPath>
<g id="surface86" clip-path="url(#clip28)">
<path style=" stroke:none;fill-rule:evenodd;fill:rgb(8.627451%,9.019608%,10.980392%);fill-opacity:1;" d="M 5.484375 5.578125 C 5.527344 5.597656 5.527344 5.597656 5.484375 5.578125 Z M 5.484375 5.578125 "/>
</g>
<mask id="mask28">
  <g filter="url(#alpha)">
<rect x="0" y="0" width="32" height="32" style="fill:rgb(0%,0%,0%);fill-opacity:0.0313725;stroke:none;"/>
  </g>
</mask>
<clipPath id="clip29">
  <rect x="0" y="0" width="32" height="32"/>
</clipPath>
<g id="surface89" clip-path="url(#clip29)">
<path style=" stroke:none;fill-rule:evenodd;fill:rgb(5.490196%,5.490196%,6.27451%);fill-opacity:1;" d="M 7.453125 6.140625 C 13.128906 6.097656 18.808594 6.097656 24.484375 6.140625 C 24.191406 6.136719 23.902344 6.140625 23.609375 6.15625 C 23.785156 6.167969 23.964844 6.175781 24.140625 6.1875 C 23.101562 6.191406 22.066406 6.207031 21.03125 6.234375 C 19.683594 6.199219 18.339844 6.199219 17 6.234375 C 16.746094 6.207031 16.492188 6.191406 16.234375 6.1875 C 16.246094 6.175781 16.253906 6.167969 16.265625 6.15625 C 16.203125 6.136719 16.140625 6.136719 16.078125 6.15625 C 16.121094 6.167969 16.160156 6.175781 16.203125 6.1875 C 13.976562 6.191406 11.753906 6.207031 9.53125 6.234375 C 8.925781 6.207031 8.316406 6.191406 7.703125 6.1875 C 7.796875 6.175781 7.890625 6.167969 7.984375 6.15625 C 7.808594 6.140625 7.628906 6.136719 7.453125 6.140625 Z M 7.453125 6.140625 "/>
</g>
<mask id="mask29">
  <g filter="url(#alpha)">
<rect x="0" y="0" width="32" height="32" style="fill:rgb(0%,0%,0%);fill-opacity:0.00392157;stroke:none;"/>
  </g>
</mask>
<clipPath id="clip30">
  <rect x="0" y="0" width="32" height="32"/>
</clipPath>
<g id="surface92" clip-path="url(#clip30)">
<path style=" stroke:none;fill-rule:evenodd;fill:rgb(8.235294%,10.196079%,10.196079%);fill-opacity:1;" d="M 5.015625 6.359375 C 4.996094 6.316406 4.996094 6.316406 5.015625 6.359375 Z M 5.015625 6.359375 "/>
</g>
<mask id="mask30">
  <g filter="url(#alpha)">
<rect x="0" y="0" width="32" height="32" style="fill:rgb(0%,0%,0%);fill-opacity:0.00392157;stroke:none;"/>
  </g>
</mask>
<clipPath id="clip31">
  <rect x="0" y="0" width="32" height="32"/>
</clipPath>
<g id="surface95" clip-path="url(#clip31)">
<path style=" stroke:none;fill-rule:evenodd;fill:rgb(9.019608%,9.411765%,10.196079%);fill-opacity:1;" d="M 4.890625 6.515625 C 4.933594 6.535156 4.933594 6.535156 4.890625 6.515625 Z M 4.890625 6.515625 "/>
</g>
<mask id="mask31">
  <g filter="url(#alpha)">
<rect x="0" y="0" width="32" height="32" style="fill:rgb(0%,0%,0%);fill-opacity:0.00392157;stroke:none;"/>
  </g>
</mask>
<clipPath id="clip32">
  <rect x="0" y="0" width="32" height="32"/>
</clipPath>
<g id="surface98" clip-path="url(#clip32)">
<path style=" stroke:none;fill-rule:evenodd;fill:rgb(9.019608%,10.196079%,12.54902%);fill-opacity:1;" d="M 27.140625 6.890625 C 27.183594 6.910156 27.183594 6.910156 27.140625 6.890625 Z M 27.140625 6.890625 "/>
</g>
<mask id="mask32">
  <g filter="url(#alpha)">
<rect x="0" y="0" width="32" height="32" style="fill:rgb(0%,0%,0%);fill-opacity:0.00392157;stroke:none;"/>
  </g>
</mask>
<clipPath id="clip33">
  <rect x="0" y="0" width="32" height="32"/>
</clipPath>
<g id="surface101" clip-path="url(#clip33)">
<path style=" stroke:none;fill-rule:evenodd;fill:rgb(8.627451%,9.411765%,12.156863%);fill-opacity:1;" d="M 27.171875 7.078125 C 27.214844 7.097656 27.214844 7.097656 27.171875 7.078125 Z M 27.171875 7.078125 "/>
</g>
<mask id="mask33">
  <g filter="url(#alpha)">
<rect x="0" y="0" width="32" height="32" style="fill:rgb(0%,0%,0%);fill-opacity:0.00392157;stroke:none;"/>
  </g>
</mask>
<clipPath id="clip34">
  <rect x="0" y="0" width="32" height="32"/>
</clipPath>
<g id="surface104" clip-path="url(#clip34)">
<path style=" stroke:none;fill-rule:evenodd;fill:rgb(7.843138%,10.196079%,11.764706%);fill-opacity:1;" d="M 27.203125 7.265625 C 27.246094 7.285156 27.246094 7.285156 27.203125 7.265625 Z M 27.203125 7.265625 "/>
</g>
<mask id="mask34">
  <g filter="url(#alpha)">
<rect x="0" y="0" width="32" height="32" style="fill:rgb(0%,0%,0%);fill-opacity:0.00392157;stroke:none;"/>
  </g>
</mask>
<clipPath id="clip35">
  <rect x="0" y="0" width="32" height="32"/>
</clipPath>
<g id="surface107" clip-path="url(#clip35)">
<path style=" stroke:none;fill-rule:evenodd;fill:rgb(5.490196%,8.627451%,12.156863%);fill-opacity:1;" d="M 27.203125 9.328125 C 27.246094 9.347656 27.246094 9.347656 27.203125 9.328125 Z M 27.203125 9.328125 "/>
</g>
<mask id="mask35">
  <g filter="url(#alpha)">
<rect x="0" y="0" width="32" height="32" style="fill:rgb(0%,0%,0%);fill-opacity:0.258824;stroke:none;"/>
  </g>
</mask>
<clipPath id="clip36">
  <rect x="0" y="0" width="32" height="32"/>
</clipPath>
<g id="surface110" clip-path="url(#clip36)">
<path style=" stroke:none;fill-rule:evenodd;fill:rgb(5.098039%,7.450981%,10.588235%);fill-opacity:1;" d="M 6.203125 7.421875 C 6.214844 11.328125 6.214844 15.234375 6.203125 19.140625 C 6.203125 19.445312 6.222656 19.742188 6.265625 20.03125 C 6.203125 20.058594 6.191406 20.097656 6.234375 20.140625 C 6.226562 20.164062 6.210938 20.1875 6.1875 20.203125 C 6.160156 15.9375 6.167969 11.675781 6.203125 7.421875 Z M 6.203125 7.421875 "/>
</g>
<mask id="mask36">
  <g filter="url(#alpha)">
<rect x="0" y="0" width="32" height="32" style="fill:rgb(0%,0%,0%);fill-opacity:0.992157;stroke:none;"/>
  </g>
</mask>
<clipPath id="clip37">
  <rect x="0" y="0" width="32" height="32"/>
</clipPath>
<g id="surface113" clip-path="url(#clip37)">
<path style=" stroke:none;fill-rule:evenodd;fill:rgb(23.137255%,63.529414%,94.509804%);fill-opacity:1;" d="M 18.921875 16.296875 C 18.941406 16.328125 18.953125 16.363281 18.953125 16.40625 C 18.890625 16.777344 18.714844 17.074219 18.421875 17.296875 C 18.703125 17.023438 18.871094 16.691406 18.921875 16.296875 Z M 18.921875 16.296875 "/>
</g>
<mask id="mask37">
  <g filter="url(#alpha)">
<rect x="0" y="0" width="32" height="32" style="fill:rgb(0%,0%,0%);fill-opacity:0.996078;stroke:none;"/>
  </g>
</mask>
<clipPath id="clip38">
  <rect x="0" y="0" width="32" height="32"/>
</clipPath>
<g id="surface116" clip-path="url(#clip38)">
<path style=" stroke:none;fill-rule:evenodd;fill:rgb(18.82353%,51.372552%,90.588236%);fill-opacity:1;" d="M 23.953125 11.765625 C 23.949219 11.789062 23.953125 11.808594 23.96875 11.828125 C 24.554688 11.796875 25.144531 11.785156 25.734375 11.796875 C 25.722656 16.050781 25.734375 20.300781 25.765625 24.546875 C 25.664062 25.078125 25.371094 25.460938 24.890625 25.703125 C 24.890625 25.6875 24.878906 25.675781 24.859375 25.671875 C 24.746094 25.71875 24.632812 25.753906 24.515625 25.78125 C 22.683594 25.796875 20.847656 25.800781 19.015625 25.796875 C 15.246094 25.796875 11.472656 25.796875 7.703125 25.796875 C 7.207031 25.773438 6.800781 25.574219 6.484375 25.203125 C 6.378906 25.097656 6.308594 24.972656 6.265625 24.828125 C 6.285156 24.820312 6.292969 24.804688 6.296875 24.78125 C 6.277344 24.726562 6.261719 24.667969 6.25 24.609375 C 6.234375 23.609375 6.230469 22.609375 6.234375 21.609375 C 7.359375 20.472656 8.484375 19.335938 9.609375 18.203125 C 9.640625 18.152344 9.683594 18.109375 9.734375 18.078125 C 9.902344 17.957031 10.058594 17.816406 10.203125 17.65625 C 10.503906 17.699219 10.804688 17.710938 11.109375 17.6875 C 11.648438 17.5625 12.042969 17.253906 12.296875 16.765625 C 13.503906 16.722656 14.714844 16.722656 15.921875 16.765625 C 16.308594 17.472656 16.859375 17.773438 17.578125 17.671875 C 17.613281 17.644531 17.652344 17.632812 17.703125 17.640625 C 17.710938 17.660156 17.726562 17.667969 17.75 17.671875 C 18.011719 17.605469 18.234375 17.480469 18.421875 17.296875 C 18.714844 17.074219 18.890625 16.777344 18.953125 16.40625 C 18.953125 16.363281 18.941406 16.328125 18.921875 16.296875 C 18.933594 16.09375 18.910156 15.898438 18.859375 15.703125 C 19.851562 14.695312 20.851562 13.6875 21.859375 12.6875 C 21.9375 12.699219 22.011719 12.695312 22.078125 12.671875 C 22.109375 12.667969 22.128906 12.675781 22.140625 12.703125 C 22.125 12.699219 22.117188 12.707031 22.109375 12.71875 C 22.335938 12.769531 22.5625 12.777344 22.796875 12.75 C 23.050781 12.707031 23.269531 12.597656 23.453125 12.421875 C 23.554688 12.304688 23.664062 12.1875 23.78125 12.078125 C 23.847656 11.976562 23.90625 11.871094 23.953125 11.765625 Z M 23.953125 11.765625 "/>
</g>
<mask id="mask38">
  <g filter="url(#alpha)">
<rect x="0" y="0" width="32" height="32" style="fill:rgb(0%,0%,0%);fill-opacity:0.992157;stroke:none;"/>
  </g>
</mask>
<clipPath id="clip39">
  <rect x="0" y="0" width="32" height="32"/>
</clipPath>
<g id="surface119" clip-path="url(#clip39)">
<path style=" stroke:none;fill-rule:evenodd;fill:rgb(21.960784%,59.607846%,95.294118%);fill-opacity:1;" d="M 6.203125 21.578125 C 6.203125 21.597656 6.214844 21.609375 6.234375 21.609375 C 6.230469 22.609375 6.234375 23.609375 6.25 24.609375 C 6.261719 24.667969 6.277344 24.726562 6.296875 24.78125 C 6.292969 24.804688 6.285156 24.820312 6.265625 24.828125 C 6.226562 24.71875 6.199219 24.601562 6.1875 24.484375 C 6.160156 23.511719 6.167969 22.542969 6.203125 21.578125 Z M 6.203125 21.578125 "/>
</g>
<mask id="mask39">
  <g filter="url(#alpha)">
<rect x="0" y="0" width="32" height="32" style="fill:rgb(0%,0%,0%);fill-opacity:0.00784314;stroke:none;"/>
  </g>
</mask>
<clipPath id="clip40">
  <rect x="0" y="0" width="32" height="32"/>
</clipPath>
<g id="surface122" clip-path="url(#clip40)">
<path style=" stroke:none;fill-rule:evenodd;fill:rgb(9.019608%,11.372549%,12.54902%);fill-opacity:1;" d="M 4.765625 24.890625 C 4.808594 24.910156 4.808594 24.910156 4.765625 24.890625 Z M 4.765625 24.890625 "/>
</g>
<mask id="mask40">
  <g filter="url(#alpha)">
<rect x="0" y="0" width="32" height="32" style="fill:rgb(0%,0%,0%);fill-opacity:0.00392157;stroke:none;"/>
  </g>
</mask>
<clipPath id="clip41">
  <rect x="0" y="0" width="32" height="32"/>
</clipPath>
<g id="surface125" clip-path="url(#clip41)">
<path style=" stroke:none;fill-rule:evenodd;fill:rgb(9.411765%,10.196079%,12.941177%);fill-opacity:1;" d="M 4.734375 25.078125 C 4.777344 25.097656 4.777344 25.097656 4.734375 25.078125 Z M 4.734375 25.078125 "/>
</g>
<mask id="mask41">
  <g filter="url(#alpha)">
<rect x="0" y="0" width="32" height="32" style="fill:rgb(0%,0%,0%);fill-opacity:0.0117647;stroke:none;"/>
  </g>
</mask>
<clipPath id="clip42">
  <rect x="0" y="0" width="32" height="32"/>
</clipPath>
<g id="surface128" clip-path="url(#clip42)">
<path style=" stroke:none;fill-rule:evenodd;fill:rgb(9.019608%,9.803922%,12.941177%);fill-opacity:1;" d="M 4.796875 25.046875 C 4.828125 25.058594 4.835938 25.082031 4.8125 25.109375 C 4.796875 25.089844 4.792969 25.070312 4.796875 25.046875 Z M 4.796875 25.046875 "/>
</g>
<mask id="mask42">
  <g filter="url(#alpha)">
<rect x="0" y="0" width="32" height="32" style="fill:rgb(0%,0%,0%);fill-opacity:0.00392157;stroke:none;"/>
  </g>
</mask>
<clipPath id="clip43">
  <rect x="0" y="0" width="32" height="32"/>
</clipPath>
<g id="surface131" clip-path="url(#clip43)">
<path style=" stroke:none;fill-rule:evenodd;fill:rgb(10.196079%,12.156863%,16.862746%);fill-opacity:1;" d="M 27.109375 25.140625 C 27.152344 25.160156 27.152344 25.160156 27.109375 25.140625 Z M 27.109375 25.140625 "/>
</g>
<mask id="mask43">
  <g filter="url(#alpha)">
<rect x="0" y="0" width="32" height="32" style="fill:rgb(0%,0%,0%);fill-opacity:0.0117647;stroke:none;"/>
  </g>
</mask>
<clipPath id="clip44">
  <rect x="0" y="0" width="32" height="32"/>
</clipPath>
<g id="surface134" clip-path="url(#clip44)">
<path style=" stroke:none;fill-rule:evenodd;fill:rgb(9.019608%,10.588235%,12.941177%);fill-opacity:1;" d="M 4.859375 25.140625 C 4.859375 25.160156 4.859375 25.183594 4.859375 25.203125 C 4.816406 25.183594 4.816406 25.160156 4.859375 25.140625 Z M 4.859375 25.140625 "/>
</g>
<mask id="mask44">
  <g filter="url(#alpha)">
<rect x="0" y="0" width="32" height="32" style="fill:rgb(0%,0%,0%);fill-opacity:0.00392157;stroke:none;"/>
  </g>
</mask>
<clipPath id="clip45">
  <rect x="0" y="0" width="32" height="32"/>
</clipPath>
<g id="surface137" clip-path="url(#clip45)">
<path style=" stroke:none;fill-rule:evenodd;fill:rgb(8.627451%,10.980392%,14.117648%);fill-opacity:1;" d="M 27.015625 25.390625 C 27.058594 25.410156 27.058594 25.410156 27.015625 25.390625 Z M 27.015625 25.390625 "/>
</g>
<mask id="mask45">
  <g filter="url(#alpha)">
<rect x="0" y="0" width="32" height="32" style="fill:rgb(0%,0%,0%);fill-opacity:0.00392157;stroke:none;"/>
  </g>
</mask>
<clipPath id="clip46">
  <rect x="0" y="0" width="32" height="32"/>
</clipPath>
<g id="surface140" clip-path="url(#clip46)">
<path style=" stroke:none;fill-rule:evenodd;fill:rgb(7.843138%,9.803922%,12.156863%);fill-opacity:1;" d="M 4.984375 25.578125 C 5.027344 25.597656 5.027344 25.597656 4.984375 25.578125 Z M 4.984375 25.578125 "/>
</g>
<mask id="mask46">
  <g filter="url(#alpha)">
<rect x="0" y="0" width="32" height="32" style="fill:rgb(0%,0%,0%);fill-opacity:0.00784314;stroke:none;"/>
  </g>
</mask>
<clipPath id="clip47">
  <rect x="0" y="0" width="32" height="32"/>
</clipPath>
<g id="surface143" clip-path="url(#clip47)">
<path style=" stroke:none;fill-rule:evenodd;fill:rgb(7.843138%,9.803922%,12.156863%);fill-opacity:1;" d="M 5.015625 25.640625 C 5.058594 25.660156 5.058594 25.660156 5.015625 25.640625 Z M 5.015625 25.640625 "/>
</g>
<mask id="mask47">
  <g filter="url(#alpha)">
<rect x="0" y="0" width="32" height="32" style="fill:rgb(0%,0%,0%);fill-opacity:0.996078;stroke:none;"/>
  </g>
</mask>
<clipPath id="clip48">
  <rect x="0" y="0" width="32" height="32"/>
</clipPath>
<g id="surface146" clip-path="url(#clip48)">
<path style=" stroke:none;fill-rule:evenodd;fill:rgb(22.745098%,60.392159%,90.980393%);fill-opacity:1;" d="M 6.484375 25.203125 C 6.800781 25.574219 7.207031 25.773438 7.703125 25.796875 C 7.714844 25.816406 7.722656 25.839844 7.734375 25.859375 C 7.238281 25.832031 6.828125 25.636719 6.5 25.265625 C 6.484375 25.246094 6.480469 25.226562 6.484375 25.203125 Z M 6.484375 25.203125 "/>
</g>
<mask id="mask48">
  <g filter="url(#alpha)">
<rect x="0" y="0" width="32" height="32" style="fill:rgb(0%,0%,0%);fill-opacity:0.00392157;stroke:none;"/>
  </g>
</mask>
<clipPath id="clip49">
  <rect x="0" y="0" width="32" height="32"/>
</clipPath>
<g id="surface149" clip-path="url(#clip49)">
<path style=" stroke:none;fill-rule:evenodd;fill:rgb(9.019608%,9.411765%,12.941177%);fill-opacity:1;" d="M 5.046875 25.703125 C 5.089844 25.722656 5.089844 25.722656 5.046875 25.703125 Z M 5.046875 25.703125 "/>
</g>
<mask id="mask49">
  <g filter="url(#alpha)">
<rect x="0" y="0" width="32" height="32" style="fill:rgb(0%,0%,0%);fill-opacity:0.996078;stroke:none;"/>
  </g>
</mask>
<clipPath id="clip50">
  <rect x="0" y="0" width="32" height="32"/>
</clipPath>
<g id="surface152" clip-path="url(#clip50)">
<path style=" stroke:none;fill-rule:evenodd;fill:rgb(23.529412%,62.352943%,96.862745%);fill-opacity:1;" d="M 7.703125 25.796875 C 11.472656 25.796875 15.246094 25.796875 19.015625 25.796875 C 20.503906 25.816406 21.996094 25.839844 23.484375 25.859375 C 18.234375 25.859375 12.984375 25.859375 7.734375 25.859375 C 7.722656 25.839844 7.714844 25.816406 7.703125 25.796875 Z M 7.703125 25.796875 "/>
</g>
<mask id="mask50">
  <g filter="url(#alpha)">
<rect x="0" y="0" width="32" height="32" style="fill:rgb(0%,0%,0%);fill-opacity:0.00784314;stroke:none;"/>
  </g>
</mask>
<clipPath id="clip51">
  <rect x="0" y="0" width="32" height="32"/>
</clipPath>
<g id="surface155" clip-path="url(#clip51)">
<path style=" stroke:none;fill-rule:evenodd;fill:rgb(7.058824%,8.627451%,12.941177%);fill-opacity:1;" d="M 26.703125 25.953125 C 26.746094 25.972656 26.746094 25.972656 26.703125 25.953125 Z M 26.703125 25.953125 "/>
</g>
<mask id="mask51">
  <g filter="url(#alpha)">
<rect x="0" y="0" width="32" height="32" style="fill:rgb(0%,0%,0%);fill-opacity:0.00392157;stroke:none;"/>
  </g>
</mask>
<clipPath id="clip52">
  <rect x="0" y="0" width="32" height="32"/>
</clipPath>
<g id="surface158" clip-path="url(#clip52)">
<path style=" stroke:none;fill-rule:evenodd;fill:rgb(7.450981%,10.196079%,12.54902%);fill-opacity:1;" d="M 5.234375 26.015625 C 5.277344 26.035156 5.277344 26.035156 5.234375 26.015625 Z M 5.234375 26.015625 "/>
</g>
<mask id="mask52">
  <g filter="url(#alpha)">
<rect x="0" y="0" width="32" height="32" style="fill:rgb(0%,0%,0%);fill-opacity:0.00392157;stroke:none;"/>
  </g>
</mask>
<clipPath id="clip53">
  <rect x="0" y="0" width="32" height="32"/>
</clipPath>
<g id="surface161" clip-path="url(#clip53)">
<path style=" stroke:none;fill-rule:evenodd;fill:rgb(7.843138%,10.196079%,12.941177%);fill-opacity:1;" d="M 5.328125 26.078125 C 5.308594 26.097656 5.308594 26.097656 5.328125 26.078125 Z M 5.328125 26.078125 "/>
</g>
<mask id="mask53">
  <g filter="url(#alpha)">
<rect x="0" y="0" width="32" height="32" style="fill:rgb(0%,0%,0%);fill-opacity:0.00392157;stroke:none;"/>
  </g>
</mask>
<clipPath id="clip54">
  <rect x="0" y="0" width="32" height="32"/>
</clipPath>
<g id="surface164" clip-path="url(#clip54)">
<path style=" stroke:none;fill-rule:evenodd;fill:rgb(8.235294%,9.411765%,13.333334%);fill-opacity:1;" d="M 5.765625 26.546875 C 5.746094 26.566406 5.746094 26.566406 5.765625 26.546875 Z M 5.765625 26.546875 "/>
</g>
<mask id="mask54">
  <g filter="url(#alpha)">
<rect x="0" y="0" width="32" height="32" style="fill:rgb(0%,0%,0%);fill-opacity:0.00784314;stroke:none;"/>
  </g>
</mask>
<clipPath id="clip55">
  <rect x="0" y="0" width="32" height="32"/>
</clipPath>
<g id="surface167" clip-path="url(#clip55)">
<path style=" stroke:none;fill-rule:evenodd;fill:rgb(7.843138%,10.196079%,14.509805%);fill-opacity:1;" d="M 6.015625 26.765625 C 5.996094 26.785156 5.996094 26.785156 6.015625 26.765625 Z M 6.015625 26.765625 "/>
</g>
<mask id="mask55">
  <g filter="url(#alpha)">
<rect x="0" y="0" width="32" height="32" style="fill:rgb(0%,0%,0%);fill-opacity:0.00784314;stroke:none;"/>
  </g>
</mask>
<clipPath id="clip56">
  <rect x="0" y="0" width="32" height="32"/>
</clipPath>
<g id="surface170" clip-path="url(#clip56)">
<path style=" stroke:none;fill-rule:evenodd;fill:rgb(8.235294%,10.588235%,14.509805%);fill-opacity:1;" d="M 6.734375 27.140625 C 6.777344 27.160156 6.777344 27.160156 6.734375 27.140625 Z M 6.734375 27.140625 "/>
</g>
<mask id="mask56">
  <g filter="url(#alpha)">
<rect x="0" y="0" width="32" height="32" style="fill:rgb(0%,0%,0%);fill-opacity:0.00392157;stroke:none;"/>
  </g>
</mask>
<clipPath id="clip57">
  <rect x="0" y="0" width="32" height="32"/>
</clipPath>
<g id="surface173" clip-path="url(#clip57)">
<path style=" stroke:none;fill-rule:evenodd;fill:rgb(12.54902%,14.117648%,15.294118%);fill-opacity:1;" d="M 9.609375 29.171875 C 9.652344 29.191406 9.652344 29.191406 9.609375 29.171875 Z M 9.609375 29.171875 "/>
</g>
</defs>
<g id="surface1">
<use xlink:href="#surface5" mask="url(#mask0)"/>
<use xlink:href="#surface8" mask="url(#mask1)"/>
<use xlink:href="#surface11" mask="url(#mask2)"/>
<use xlink:href="#surface14" mask="url(#mask3)"/>
<use xlink:href="#surface17" mask="url(#mask4)"/>
<use xlink:href="#surface20" mask="url(#mask5)"/>
<use xlink:href="#surface23" mask="url(#mask6)"/>
<use xlink:href="#surface26" mask="url(#mask7)"/>
<use xlink:href="#surface29" mask="url(#mask8)"/>
<use xlink:href="#surface32" mask="url(#mask9)"/>
<use xlink:href="#surface35" mask="url(#mask10)"/>
<use xlink:href="#surface38" mask="url(#mask11)"/>
<use xlink:href="#surface41" mask="url(#mask12)"/>
<use xlink:href="#surface44" mask="url(#mask13)"/>
<use xlink:href="#surface47" mask="url(#mask14)"/>
<use xlink:href="#surface50" mask="url(#mask15)"/>
<use xlink:href="#surface53" mask="url(#mask16)"/>
<use xlink:href="#surface56" mask="url(#mask17)"/>
<use xlink:href="#surface59" mask="url(#mask18)"/>
<use xlink:href="#surface62" mask="url(#mask19)"/>
<use xlink:href="#surface65" mask="url(#mask20)"/>
<use xlink:href="#surface68" mask="url(#mask21)"/>
<use xlink:href="#surface71" mask="url(#mask22)"/>
<use xlink:href="#surface74" mask="url(#mask23)"/>
<use xlink:href="#surface77" mask="url(#mask24)"/>
<use xlink:href="#surface80" mask="url(#mask25)"/>
<use xlink:href="#surface83" mask="url(#mask26)"/>
<use xlink:href="#surface86" mask="url(#mask27)"/>
<use xlink:href="#surface89" mask="url(#mask28)"/>
<use xlink:href="#surface92" mask="url(#mask29)"/>
<use xlink:href="#surface95" mask="url(#mask30)"/>
<use xlink:href="#surface98" mask="url(#mask31)"/>
<use xlink:href="#surface101" mask="url(#mask32)"/>
<use xlink:href="#surface104" mask="url(#mask33)"/>
<use xlink:href="#surface107" mask="url(#mask34)"/>
<path style=" stroke:none;fill-rule:evenodd;fill:rgb(22.745098%,61.960787%,92.941177%);fill-opacity:1;" d="M 23.453125 12.421875 C 23.269531 12.597656 23.050781 12.707031 22.796875 12.75 C 22.5625 12.777344 22.335938 12.769531 22.109375 12.71875 C 22.117188 12.707031 22.125 12.699219 22.140625 12.703125 C 22.617188 12.777344 23.054688 12.683594 23.453125 12.421875 Z M 23.453125 12.421875 "/>
<path style=" stroke:none;fill-rule:evenodd;fill:rgb(23.529412%,65.098041%,97.254902%);fill-opacity:1;" d="M 22.078125 12.671875 C 22.011719 12.695312 21.9375 12.699219 21.859375 12.6875 C 20.851562 13.6875 19.851562 14.695312 18.859375 15.703125 C 18.855469 15.671875 18.859375 15.640625 18.875 15.609375 C 19.871094 14.613281 20.863281 13.621094 21.859375 12.625 C 21.933594 12.628906 22.003906 12.644531 22.078125 12.671875 Z M 22.078125 12.671875 "/>
<use xlink:href="#surface110" mask="url(#mask35)"/>
<path style=" stroke:none;fill-rule:evenodd;fill:rgb(23.529412%,61.56863%,92.54902%);fill-opacity:1;" d="M 17.578125 17.671875 C 16.859375 17.773438 16.308594 17.472656 15.921875 16.765625 C 14.714844 16.722656 13.503906 16.722656 12.296875 16.765625 C 12.042969 17.253906 11.648438 17.5625 11.109375 17.6875 C 10.804688 17.710938 10.503906 17.699219 10.203125 17.65625 C 10.058594 17.816406 9.902344 17.957031 9.734375 18.078125 C 9.882812 17.914062 10.039062 17.75 10.203125 17.59375 C 10.910156 17.792969 11.519531 17.628906 12.03125 17.109375 C 12.125 16.984375 12.203125 16.847656 12.265625 16.703125 C 13.496094 16.660156 14.722656 16.660156 15.953125 16.703125 C 16.273438 17.386719 16.816406 17.710938 17.578125 17.671875 Z M 17.578125 17.671875 "/>
<use xlink:href="#surface113" mask="url(#mask36)"/>
<path style=" stroke:none;fill-rule:evenodd;fill:rgb(23.137255%,58.431375%,85.882354%);fill-opacity:1;" d="M 23.953125 11.765625 C 24.566406 11.765625 25.183594 11.765625 25.796875 11.765625 C 25.808594 16.027344 25.796875 20.289062 25.765625 24.546875 C 25.734375 20.300781 25.722656 16.050781 25.734375 11.796875 C 25.144531 11.785156 24.554688 11.796875 23.96875 11.828125 C 23.953125 11.808594 23.949219 11.789062 23.953125 11.765625 Z M 23.953125 11.765625 "/>
<path style=" stroke:none;fill-rule:evenodd;fill:rgb(23.137255%,65.098041%,95.294118%);fill-opacity:1;" d="M 9.609375 18.203125 C 8.484375 19.335938 7.359375 20.472656 6.234375 21.609375 C 6.214844 21.609375 6.203125 21.597656 6.203125 21.578125 C 7.320312 20.429688 8.457031 19.304688 9.609375 18.203125 Z M 9.609375 18.203125 "/>
<use xlink:href="#surface116" mask="url(#mask37)"/>
<path style=" stroke:none;fill-rule:evenodd;fill:rgb(23.529412%,63.529414%,92.156863%);fill-opacity:1;" d="M 18.421875 17.296875 C 18.234375 17.480469 18.011719 17.605469 17.75 17.671875 C 17.726562 17.667969 17.710938 17.660156 17.703125 17.640625 C 17.964844 17.566406 18.203125 17.453125 18.421875 17.296875 Z M 18.421875 17.296875 "/>
<use xlink:href="#surface119" mask="url(#mask38)"/>
<use xlink:href="#surface122" mask="url(#mask39)"/>
<use xlink:href="#surface125" mask="url(#mask40)"/>
<use xlink:href="#surface128" mask="url(#mask41)"/>
<use xlink:href="#surface131" mask="url(#mask42)"/>
<use xlink:href="#surface134" mask="url(#mask43)"/>
<use xlink:href="#surface137" mask="url(#mask44)"/>
<use xlink:href="#surface140" mask="url(#mask45)"/>
<use xlink:href="#surface143" mask="url(#mask46)"/>
<use xlink:href="#surface146" mask="url(#mask47)"/>
<use xlink:href="#surface149" mask="url(#mask48)"/>
<path style=" stroke:none;fill-rule:evenodd;fill:rgb(22.745098%,60.784316%,96.862745%);fill-opacity:1;" d="M 24.890625 25.703125 C 24.742188 25.773438 24.585938 25.820312 24.421875 25.84375 C 24.109375 25.859375 23.796875 25.863281 23.484375 25.859375 C 21.996094 25.839844 20.503906 25.816406 19.015625 25.796875 C 20.847656 25.800781 22.683594 25.796875 24.515625 25.78125 C 24.632812 25.753906 24.746094 25.71875 24.859375 25.671875 C 24.878906 25.675781 24.890625 25.6875 24.890625 25.703125 Z M 24.890625 25.703125 "/>
<use xlink:href="#surface152" mask="url(#mask49)"/>
<use xlink:href="#surface155" mask="url(#mask50)"/>
<use xlink:href="#surface158" mask="url(#mask51)"/>
<use xlink:href="#surface161" mask="url(#mask52)"/>
<use xlink:href="#surface164" mask="url(#mask53)"/>
<use xlink:href="#surface167" mask="url(#mask54)"/>
<use xlink:href="#surface170" mask="url(#mask55)"/>
<use xlink:href="#surface173" mask="url(#mask56)"/>
</g>
</svg>
